<svg xmlns="http://www.w3.org/2000/svg" width="30" height="29" fill="none" viewBox="0 0 30 29"><g id="Frame 1000002354"><g id="call"><mask id="mask0_199_474" style="mask-type:alpha" width="30" height="29" x="0" y="0" maskUnits="userSpaceOnUse"><rect id="Bounding box" width="29" height="29" x=".5" fill="#D9D9D9"/></mask><g mask="url(#mask0_199_474)"><path id="call_2" fill="url(#paint0_linear_199_474)" d="M24.6063 25.375C22.0083 25.375 19.4759 24.796 17.0089 23.638C14.5418 22.48 12.3568 20.9495 10.4536 19.0464C8.55052 17.1432 7.01997 14.9582 5.86198 12.4911C4.70399 10.0241 4.125 7.49167 4.125 4.89375C4.125 4.53125 4.24583 4.22917 4.4875 3.9875C4.72917 3.74583 5.03125 3.625 5.39375 3.625H10.2875C10.5694 3.625 10.8212 3.71563 11.0427 3.89688C11.2642 4.07813 11.3951 4.30972 11.4354 4.59167L12.2208 8.82083C12.2611 9.10278 12.2561 9.35955 12.2057 9.59115C12.1554 9.82274 12.0396 10.0292 11.8583 10.2104L8.95833 13.1708C9.80417 14.6208 10.8615 15.9802 12.1302 17.249C13.399 18.5177 14.7986 19.6153 16.3292 20.5417L19.1687 17.7021C19.35 17.5208 19.5866 17.3849 19.8786 17.2943C20.1707 17.2036 20.4576 17.1785 20.7396 17.2188L24.9083 18.0646C25.1903 18.125 25.4219 18.2609 25.6031 18.4724C25.7844 18.6839 25.875 18.9306 25.875 19.2125V24.1063C25.875 24.4688 25.7542 24.7708 25.5125 25.0125C25.2708 25.2542 24.9688 25.375 24.6063 25.375Z"/></g></g></g><defs><linearGradient id="paint0_linear_199_474" x1="4.689" x2="28.964" y1="3.625" y2="21.78" gradientUnits="userSpaceOnUse"><stop/><stop offset="1" stop-color="#1E1E1E"/></linearGradient></defs></svg>