<svg width="21" height="20" viewBox="0 0 21 20" fill="none" xmlns="http://www.w3.org/2000/svg">
<g id="visibility">
<mask id="mask0_2_2263" style="mask-type:alpha" maskUnits="userSpaceOnUse" x="0" y="0" width="21" height="20">
<rect id="Bounding box" x="0.299805" width="20" height="20" fill="#D9D9D9"/>
</mask>
<g mask="url(#mask0_2_2263)">
<path id="visibility_2" d="M10.2998 13.3333C11.3415 13.3333 12.2269 12.9688 12.956 12.2396C13.6852 11.5104 14.0498 10.625 14.0498 9.58334C14.0498 8.54168 13.6852 7.65626 12.956 6.92709C12.2269 6.19793 11.3415 5.83334 10.2998 5.83334C9.25812 5.83334 8.3727 6.19793 7.64353 6.92709C6.91437 7.65626 6.54978 8.54168 6.54978 9.58334C6.54978 10.625 6.91437 11.5104 7.64353 12.2396C8.3727 12.9688 9.25812 13.3333 10.2998 13.3333ZM10.2998 11.8333C9.67478 11.8333 9.14354 11.6146 8.70604 11.1771C8.26854 10.7396 8.04978 10.2083 8.04978 9.58334C8.04978 8.95834 8.26854 8.42709 8.70604 7.98959C9.14354 7.55209 9.67478 7.33334 10.2998 7.33334C10.9248 7.33334 11.456 7.55209 11.8935 7.98959C12.331 8.42709 12.5498 8.95834 12.5498 9.58334C12.5498 10.2083 12.331 10.7396 11.8935 11.1771C11.456 11.6146 10.9248 11.8333 10.2998 11.8333ZM10.2998 15.8333C8.27201 15.8333 6.42478 15.2674 4.75812 14.1354C3.09145 13.0035 1.88312 11.4861 1.13312 9.58334C1.88312 7.68057 3.09145 6.1632 4.75812 5.03126C6.42478 3.89932 8.27201 3.33334 10.2998 3.33334C12.3276 3.33334 14.1748 3.89932 15.8415 5.03126C17.5081 6.1632 18.7165 7.68057 19.4665 9.58334C18.7165 11.4861 17.5081 13.0035 15.8415 14.1354C14.1748 15.2674 12.3276 15.8333 10.2998 15.8333ZM10.2998 14.1667C11.8692 14.1667 13.3102 13.7535 14.6227 12.9271C15.9352 12.1007 16.9387 10.9861 17.6331 9.58334C16.9387 8.18057 15.9352 7.06598 14.6227 6.23959C13.3102 5.4132 11.8692 5.00001 10.2998 5.00001C8.73034 5.00001 7.28937 5.4132 5.97687 6.23959C4.66437 7.06598 3.6609 8.18057 2.96645 9.58334C3.6609 10.9861 4.66437 12.1007 5.97687 12.9271C7.28937 13.7535 8.73034 14.1667 10.2998 14.1667Z" fill="#A8A8A8"/>
</g>
</g>
</svg>
