<svg width="25" height="25" viewBox="0 0 25 25" fill="none" xmlns="http://www.w3.org/2000/svg">
<g id="vuesax/linear/global">
<g id="global">
<path id="Vector" d="M12.2998 22.3438C17.8227 22.3438 22.2998 17.8666 22.2998 12.3438C22.2998 6.8209 17.8227 2.34375 12.2998 2.34375C6.77696 2.34375 2.2998 6.8209 2.2998 12.3438C2.2998 17.8666 6.77696 22.3438 12.2998 22.3438Z" stroke="#fff" stroke-width="1.5" stroke-linecap="round" stroke-linejoin="round"/>
<path id="Vector_2" d="M8.29978 3.34375H9.29978C7.34978 9.18375 7.34978 15.5037 9.29978 21.3438H8.29978" stroke="#fff" stroke-width="1.5" stroke-linecap="round" stroke-linejoin="round"/>
<path id="Vector_3" d="M15.2998 3.34375C17.2498 9.18375 17.2498 15.5037 15.2998 21.3438" stroke="#fff" stroke-width="1.5" stroke-linecap="round" stroke-linejoin="round"/>
<path id="Vector_4" d="M3.2998 16.3438V15.3438C9.1398 17.2938 15.4598 17.2938 21.2998 15.3438V16.3438" stroke="#fff" stroke-width="1.5" stroke-linecap="round" stroke-linejoin="round"/>
<path id="Vector_5" d="M3.2998 9.34373C9.1398 7.39373 15.4598 7.39373 21.2998 9.34373" stroke="#fff" stroke-width="1.5" stroke-linecap="round" stroke-linejoin="round"/>
</g>
</g>
<defs>
<linearGradient id="paint0_linear_196_280" x1="2.8185" y1="2.34375" x2="25.1402" y2="19.0378" gradientUnits="userSpaceOnUse">
<stop/>
<stop offset="1" stop-color="#fff"/>
</linearGradient>
<linearGradient id="paint1_linear_196_280" x1="7.87521" y1="3.34375" x2="10.4111" y2="3.49785" gradientUnits="userSpaceOnUse">
<stop/>
<stop offset="1" stop-color="#fff"/>
</linearGradient>
<linearGradient id="paint2_linear_196_280" x1="15.3377" y1="3.34375" x2="17.8736" y2="3.49785" gradientUnits="userSpaceOnUse">
<stop/>
<stop offset="1" stop-color="#fff"/>
</linearGradient>
<linearGradient id="paint3_linear_196_280" x1="3.76663" y1="15.3437" x2="4.13205" y2="18.7073" gradientUnits="userSpaceOnUse">
<stop/>
<stop offset="1" stop-color="#fff"/>
</linearGradient>
<linearGradient id="paint4_linear_196_280" x1="3.76663" y1="7.88123" x2="4.13205" y2="11.2448" gradientUnits="userSpaceOnUse">
<stop/>
<stop offset="1" stop-color="#fff"/>
</linearGradient>
</defs>
</svg>
