<svg width="30" height="21" viewBox="0 0 30 21" fill="none" xmlns="http://www.w3.org/2000/svg">
<path opacity="0.2" d="M16.5321 12.7322C16.5321 10.622 16.8568 8.80943 17.5061 7.29441C18.1554 5.72528 18.9941 4.45375 20.0221 3.47981C21.0502 2.45176 22.2135 1.7213 23.5121 1.28844C24.8648 0.801468 26.1904 0.557983 27.489 0.557983V3.39865C26.0822 3.39865 24.7565 3.88562 23.5121 4.85956C22.3217 5.77939 21.6183 7.05092 21.4019 8.67416C21.5642 8.62005 21.7536 8.56594 21.97 8.51183C22.1323 8.45772 22.3217 8.40362 22.5381 8.34951C22.8087 8.2954 23.1062 8.26835 23.4309 8.26835C25.0541 8.26835 26.4068 8.89059 27.489 10.1351C28.5711 11.3254 29.1122 12.7322 29.1122 14.3555C29.1122 15.9787 28.5441 17.4126 27.4078 18.657C26.3257 19.8474 24.8648 20.4426 23.0251 20.4426C20.969 20.4426 19.3728 19.6851 18.2365 18.1701C17.1003 16.601 16.5321 14.7883 16.5321 12.7322ZM0.299805 12.7322C0.299805 10.622 0.624452 8.80943 1.27375 7.29441C1.92304 5.72528 2.76171 4.45375 3.78976 3.47981C4.81781 2.45176 5.98113 1.7213 7.27971 1.28844C8.63241 0.801468 9.95805 0.557983 11.2566 0.557983V3.39865C9.84983 3.39865 8.52419 3.88562 7.27971 4.85956C6.08934 5.77939 5.38594 7.05092 5.16951 8.67416C5.33183 8.62005 5.52121 8.56594 5.73764 8.51183C5.89996 8.45772 6.08934 8.40362 6.30577 8.34951C6.57631 8.2954 6.8739 8.26835 7.19855 8.26835C8.82179 8.26835 10.1745 8.89059 11.2566 10.1351C12.3388 11.3254 12.8799 12.7322 12.8799 14.3555C12.8799 15.9787 12.3117 17.4126 11.1755 18.657C10.0933 19.8474 8.63241 20.4426 6.79274 20.4426C4.73665 20.4426 3.14047 19.6851 2.0042 18.1701C0.867937 16.601 0.299805 14.7883 0.299805 12.7322Z" fill="#626262"/>
</svg>
