<svg width="30" height="30" viewBox="0 0 30 30" fill="none" xmlns="http://www.w3.org/2000/svg">
<g id="ic:baseline-whatsapp">
<path id="Vector" d="M23.318 6.61495C22.2102 5.49595 20.8907 4.60872 19.4364 4.00502C17.9821 3.40131 16.4222 3.09322 14.8476 3.0987C8.25012 3.0987 2.87303 8.47579 2.87303 15.0733C2.87303 17.1879 3.42887 19.242 4.46803 21.0545L2.77637 27.2654L9.12012 25.5979C10.8722 26.5525 12.8418 27.06 14.8476 27.06C21.4451 27.06 26.8222 21.6829 26.8222 15.0854C26.8222 11.8833 25.5776 8.87454 23.318 6.61495ZM14.8476 25.03C13.0593 25.03 11.3072 24.5466 9.77262 23.6404L9.41012 23.4229L5.64012 24.4137L6.64303 20.7404L6.40137 20.3658C5.40781 18.7792 4.88024 16.9453 4.87887 15.0733C4.87887 9.58745 9.3497 5.11662 14.8355 5.11662C17.4939 5.11662 19.9951 6.15579 21.868 8.04079C22.7954 8.96391 23.5303 10.0619 24.0302 11.2712C24.5301 12.4804 24.785 13.7769 24.7801 15.0854C24.8043 20.5712 20.3335 25.03 14.8476 25.03ZM20.3093 17.5866C20.0072 17.4416 18.533 16.7166 18.2672 16.6079C17.9893 16.5112 17.796 16.4629 17.5905 16.7529C17.3851 17.055 16.8172 17.7316 16.648 17.925C16.4789 18.1304 16.2976 18.1545 15.9955 17.9975C15.6935 17.8525 14.7268 17.5262 13.591 16.5112C12.6968 15.7137 12.1047 14.735 11.9235 14.4329C11.7543 14.1308 11.8993 13.9737 12.0564 13.8166C12.1893 13.6837 12.3585 13.4662 12.5035 13.297C12.6485 13.1279 12.7089 12.995 12.8055 12.8016C12.9022 12.5962 12.8539 12.427 12.7814 12.282C12.7089 12.137 12.1047 10.6629 11.863 10.0587C11.6214 9.47871 11.3676 9.55121 11.1864 9.53912H10.6064C10.401 9.53912 10.0868 9.61162 9.80887 9.9137C9.54303 10.2158 8.7697 10.9408 8.7697 12.415C8.7697 13.8891 9.84512 15.315 9.99012 15.5083C10.1351 15.7137 12.1047 18.7345 15.1014 20.0275C15.8143 20.3416 16.3701 20.5229 16.8051 20.6558C17.518 20.8854 18.1705 20.8491 18.6901 20.7766C19.2701 20.692 20.4664 20.0516 20.708 19.3508C20.9618 18.65 20.9618 18.0579 20.8772 17.925C20.7926 17.792 20.6114 17.7316 20.3093 17.5866Z" fill="url(#paint0_linear_2_2138)"/>
</g>
<defs>
<linearGradient id="paint0_linear_2_2138" x1="3.39999" y1="3.09863" x2="30.3336" y2="23.1411" gradientUnits="userSpaceOnUse">
<stop/>
<stop offset="1" stop-color="#1E1E1E"/>
</linearGradient>
</defs>
</svg>
