<svg xmlns="http://www.w3.org/2000/svg" width="25" height="24" fill="none" viewBox="0 0 25 24"><path stroke="#A8A8A8" stroke-linecap="round" stroke-linejoin="round" stroke-width="1.5" d="M16.2998 12.9V17.1C16.2998 20.6 14.8998 22 11.3998 22H7.1998C3.6998 22 2.2998 20.6 2.2998 17.1V12.9C2.2998 9.4 3.6998 8 7.1998 8H11.3998C14.8998 8 16.2998 9.4 16.2998 12.9Z"/><path stroke="#A8A8A8" stroke-linecap="round" stroke-linejoin="round" stroke-width="1.5" d="M22.2998 6.9V11.1C22.2998 14.6 20.8998 16 17.3998 16H16.2998V12.9C16.2998 9.4 14.8998 8 11.3998 8H8.2998V6.9C8.2998 3.4 9.6998 2 13.1998 2H17.3998C20.8998 2 22.2998 3.4 22.2998 6.9Z"/></svg>