<svg width="28" height="28" viewBox="0 0 28 28" fill="none" xmlns="http://www.w3.org/2000/svg">
<g id="icon-park-outline:dribble">
<g id="Group">
<path id="Vector" d="M25.3848 14.2826C25.3867 15.7605 25.0957 17.2241 24.5287 18.5889C23.9616 19.9536 23.1297 21.1925 22.081 22.2338C21.0409 23.2721 19.8065 24.0952 18.4481 24.6561C17.0898 25.217 15.6342 25.5048 14.1646 25.5029C7.96765 25.5029 2.94435 20.4796 2.94435 14.2826C2.94042 11.4056 4.04554 8.63781 6.02991 6.55469C7.07695 5.44983 8.33843 4.57024 9.73715 3.96976C11.1359 3.36927 12.6424 3.06052 14.1646 3.06239C15.6342 3.06048 17.0898 3.34821 18.4481 3.90913C19.8065 4.47005 21.0409 5.29315 22.081 6.3314C23.1297 7.37277 23.9616 8.61162 24.5287 9.97638C25.0957 11.3411 25.3867 12.8047 25.3848 14.2826Z" stroke="#F9FCFF" stroke-width="2.24405" stroke-linecap="round" stroke-linejoin="round"/>
<path id="Vector_2" d="M25.3847 14.2826C23.7476 14.2826 19.2315 13.6654 15.1894 15.4399C10.7984 17.3681 7.6191 20.3589 6.2334 22.2192" stroke="#F9FCFF" stroke-width="2.24405" stroke-linecap="round" stroke-linejoin="round"/>
<path id="Vector_3" d="M9.95605 3.87781C11.712 5.49857 15.5437 9.62481 16.9687 13.7213C18.3937 17.8178 18.921 22.8546 19.2464 24.288" stroke="#F9FCFF" stroke-width="2.24405" stroke-linecap="round" stroke-linejoin="round"/>
<path id="Vector_4" d="M3.03027 12.8803C5.14978 13.0082 10.7605 13.1232 14.3509 11.5899C17.9414 10.0567 21.0309 7.23649 22.0907 6.34167M3.7854 18.5538C4.77407 20.947 6.55719 22.9265 8.8345 24.1589" stroke="#F9FCFF" stroke-width="2.24405" stroke-linecap="round" stroke-linejoin="round"/>
<path id="Vector_5" d="M2.94435 14.2826C2.94042 11.4056 4.04554 8.63781 6.02991 6.55469C7.07695 5.44983 8.33843 4.57024 9.73715 3.96976C11.1359 3.36927 12.6424 3.06052 14.1646 3.06239M18.6527 3.99591C19.9305 4.55498 21.093 5.34696 22.081 6.3314C23.1297 7.37277 23.9616 8.61162 24.5287 9.97638C25.0957 11.3411 25.3867 12.8047 25.3848 14.2826C25.3848 15.6638 25.1352 16.9873 24.6779 18.2097M14.1646 25.5029C15.6342 25.5048 17.0898 25.217 18.4481 24.6561C19.8065 24.0952 21.0409 23.2721 22.081 22.2338" stroke="#F9FCFF" stroke-width="2.24405" stroke-linecap="round" stroke-linejoin="round"/>
</g>
</g>
</svg>
