<svg xmlns="http://www.w3.org/2000/svg" width="28" height="27" fill="none" viewBox="0 0 28 27"><g id="icon-park-outline:dribble"><g id="Group"><path id="Vector" stroke="url(#paint0_linear_199_449)" stroke-linecap="round" stroke-linejoin="round" stroke-width="2.244" d="M24.9345 13.4643C24.9364 14.9421 24.6454 16.4058 24.0783 17.7705C23.5113 19.1353 22.6794 20.3741 21.6307 21.4155C20.5906 22.4537 19.3561 23.2768 17.9978 23.8378C16.6394 24.3987 15.1839 24.6864 13.7143 24.6845C7.51733 24.6845 2.49403 19.6612 2.49403 13.4643C2.49011 10.5873 3.59522 7.81945 5.57959 5.73633C6.62663 4.63147 7.88811 3.75188 9.28683 3.1514C10.6856 2.55091 12.1921 2.24216 13.7143 2.24403C15.1839 2.24212 16.6394 2.52985 17.9978 3.09077C19.3561 3.65169 20.5906 4.47479 21.6307 5.51304C22.6794 6.55441 23.5113 7.79326 24.0783 9.15802C24.6454 10.5228 24.9364 11.9864 24.9345 13.4643Z"/><path id="Vector_2" stroke="url(#paint1_linear_199_449)" stroke-linecap="round" stroke-linejoin="round" stroke-width="2.244" d="M24.9345 13.4642C23.2975 13.4642 18.7813 12.8471 14.7392 14.6216C10.3482 16.5498 7.16893 19.5405 5.78323 21.4008"/><path id="Vector_3" stroke="url(#paint2_linear_199_449)" stroke-linecap="round" stroke-linejoin="round" stroke-width="2.244" d="M9.50574 3.05945C11.2617 4.68021 15.0934 8.80645 16.5184 12.903C17.9434 16.9995 18.4707 22.0362 18.7961 23.4696"/><path id="Vector_4" stroke="url(#paint3_linear_199_449)" stroke-linecap="round" stroke-linejoin="round" stroke-width="2.244" d="M2.57996 12.0619C4.69946 12.1898 10.3101 12.3048 13.9006 10.7716C17.4911 9.23834 20.5806 6.41813 21.6403 5.52332M3.33508 17.7354C4.32376 20.1286 6.10687 22.1081 8.38419 23.3405"/><path id="Vector_5" stroke="url(#paint4_linear_199_449)" stroke-linecap="round" stroke-linejoin="round" stroke-width="2.244" d="M2.49403 13.4643C2.49011 10.5873 3.59522 7.81945 5.57959 5.73633C6.62663 4.63147 7.88811 3.75188 9.28683 3.1514C10.6856 2.55091 12.1921 2.24216 13.7143 2.24403M18.2024 3.17755C19.4801 3.73662 20.6427 4.5286 21.6307 5.51304C22.6794 6.55441 23.5113 7.79326 24.0783 9.15802C24.6454 10.5228 24.9364 11.9864 24.9345 13.4643C24.9345 14.8455 24.6849 16.1689 24.2276 17.3913M13.7143 24.6845C15.1839 24.6864 16.6394 24.3987 17.9978 23.8378C19.3561 23.2768 20.5906 22.4537 21.6307 21.4155"/></g></g><defs><linearGradient id="paint0_linear_199_449" x1="3.076" x2="28.122" y1="2.244" y2="20.975" gradientUnits="userSpaceOnUse"><stop/><stop offset="1" stop-color="#1E1E1E"/></linearGradient><linearGradient id="paint1_linear_199_449" x1="6.28" x2="14.267" y1="13.36" y2="27.587" gradientUnits="userSpaceOnUse"><stop/><stop offset="1" stop-color="#1E1E1E"/></linearGradient><linearGradient id="paint2_linear_199_449" x1="9.747" x2="24.236" y1="3.059" y2="7.992" gradientUnits="userSpaceOnUse"><stop/><stop offset="1" stop-color="#1E1E1E"/></linearGradient><linearGradient id="paint3_linear_199_449" x1="3.074" x2="23.299" y1="5.523" y2="21.705" gradientUnits="userSpaceOnUse"><stop/><stop offset="1" stop-color="#1E1E1E"/></linearGradient><linearGradient id="paint4_linear_199_449" x1="3.076" x2="28.122" y1="2.244" y2="20.975" gradientUnits="userSpaceOnUse"><stop/><stop offset="1" stop-color="#1E1E1E"/></linearGradient></defs></svg>