<svg width="30" height="29" viewBox="0 0 30 29" fill="none" xmlns="http://www.w3.org/2000/svg">
<g id="Frame 1000002351">
<g id="alternate_email">
<mask id="mask0_199_471" style="mask-type:alpha" maskUnits="userSpaceOnUse" x="0" y="0" width="30" height="29">
<rect id="Bounding box" x="0.75" width="29" height="29" fill="#D9D9D9"/>
</mask>
<g mask="url(#mask0_199_471)">
<path id="alternate_email_2" d="M15.2493 26.5837C13.598 26.5837 12.0372 26.2665 10.5671 25.6321C9.09692 24.9977 7.81306 24.1317 6.71549 23.0342C5.61793 21.9366 4.75195 20.6528 4.11758 19.1826C3.4832 17.7125 3.16602 16.1517 3.16602 14.5003C3.16602 12.8288 3.4832 11.263 4.11758 9.80293C4.75195 8.34286 5.61793 7.06404 6.71549 5.96647C7.81306 4.8689 9.09692 4.00293 10.5671 3.36855C12.0372 2.73418 13.598 2.41699 15.2493 2.41699C16.9209 2.41699 18.4867 2.73418 19.9467 3.36855C21.4068 4.00293 22.6856 4.8689 23.7832 5.96647C24.8808 7.06404 25.7467 8.34286 26.3811 9.80293C27.0155 11.263 27.3327 12.8288 27.3327 14.5003V16.2524C27.3327 17.4406 26.9249 18.4526 26.1092 19.2883C25.2936 20.1241 24.2917 20.542 23.1035 20.542C22.3785 20.542 21.7039 20.3809 21.0796 20.0587C20.4552 19.7364 19.9417 19.3135 19.5389 18.7899C18.9952 19.3337 18.3558 19.7616 17.6207 20.0738C16.8856 20.3859 16.0952 20.542 15.2493 20.542C13.5778 20.542 12.153 19.9529 10.9749 18.7748C9.79674 17.5967 9.20768 16.1719 9.20768 14.5003C9.20768 12.8288 9.79674 11.404 10.9749 10.2258C12.153 9.04772 13.5778 8.45866 15.2493 8.45866C16.9209 8.45866 18.3457 9.04772 19.5238 10.2258C20.702 11.404 21.291 12.8288 21.291 14.5003V16.2524C21.291 16.8364 21.4723 17.2946 21.8348 17.6269C22.1973 17.9592 22.6202 18.1253 23.1035 18.1253C23.5868 18.1253 24.0098 17.9592 24.3723 17.6269C24.7348 17.2946 24.916 16.8364 24.916 16.2524V14.5003C24.916 11.8621 23.9645 9.59147 22.0613 7.68835C20.1582 5.78522 17.8875 4.83366 15.2493 4.83366C12.6112 4.83366 10.3405 5.78522 8.43737 7.68835C6.53424 9.59147 5.58268 11.8621 5.58268 14.5003C5.58268 17.1385 6.53424 19.4092 8.43737 21.3123C10.3405 23.2154 12.6112 24.167 15.2493 24.167H21.291V26.5837H15.2493ZM15.2493 18.1253C16.2563 18.1253 17.1122 17.7729 17.8171 17.068C18.5219 16.3632 18.8743 15.5073 18.8743 14.5003C18.8743 13.4934 18.5219 12.6375 17.8171 11.9326C17.1122 11.2278 16.2563 10.8753 15.2493 10.8753C14.2424 10.8753 13.3865 11.2278 12.6816 11.9326C11.9768 12.6375 11.6243 13.4934 11.6243 14.5003C11.6243 15.5073 11.9768 16.3632 12.6816 17.068C13.3865 17.7729 14.2424 18.1253 15.2493 18.1253Z" fill="url(#paint0_linear_199_471)"/>
</g>
</g>
</g>
<defs>
<linearGradient id="paint0_linear_199_471" x1="3.79277" y1="2.41699" x2="30.7648" y2="22.589" gradientUnits="userSpaceOnUse">
<stop/>
<stop offset="1" stop-color="#1E1E1E"/>
</linearGradient>
</defs>
</svg>
