<svg width="30" height="30" viewBox="0 0 30 30" fill="none" xmlns="http://www.w3.org/2000/svg">
<g id="ph:instagram-logo-fill">
<path id="Vector" d="M18.8252 15.3184C18.8252 16.0353 18.6126 16.7362 18.2143 17.3323C17.816 17.9284 17.2498 18.3931 16.5874 18.6674C15.925 18.9418 15.1962 19.0136 14.493 18.8737C13.7898 18.7338 13.1439 18.3886 12.6369 17.8816C12.13 17.3747 11.7847 16.7287 11.6448 16.0256C11.505 15.3224 11.5768 14.5935 11.8511 13.9311C12.1255 13.2687 12.5901 12.7026 13.1863 12.3043C13.7824 11.906 14.4832 11.6934 15.2002 11.6934C16.1607 11.6963 17.081 12.0792 17.7602 12.7584C18.4393 13.4376 18.8222 14.3579 18.8252 15.3184ZM26.5283 10.334V20.3027C26.5283 21.9852 25.86 23.5988 24.6703 24.7884C23.4806 25.9781 21.867 26.6465 20.1846 26.6465H10.2158C8.53335 26.6465 6.9198 25.9781 5.73011 24.7884C4.54043 23.5988 3.87207 21.9852 3.87207 20.3027V10.334C3.87207 8.65152 4.54043 7.03796 5.73011 5.84828C6.9198 4.65859 8.53335 3.99023 10.2158 3.99023H20.1846C21.867 3.99023 23.4806 4.65859 24.6703 5.84828C25.86 7.03796 26.5283 8.65152 26.5283 10.334ZM20.6377 15.3184C20.6377 14.2429 20.3188 13.1916 19.7213 12.2974C19.1238 11.4033 18.2746 10.7063 17.281 10.2948C16.2875 9.88321 15.1942 9.77553 14.1394 9.98534C13.0846 10.1951 12.1158 10.713 11.3553 11.4735C10.5949 12.2339 10.077 13.2028 9.86718 14.2576C9.65737 15.3123 9.76505 16.4056 10.1766 17.3992C10.5882 18.3928 11.2851 19.242 12.1793 19.8395C13.0735 20.437 14.1248 20.7559 15.2002 20.7559C16.6423 20.7559 18.0254 20.183 19.0451 19.1633C20.0648 18.1435 20.6377 16.7605 20.6377 15.3184ZM22.4502 9.42773C22.4502 9.15888 22.3705 8.89605 22.2211 8.67251C22.0717 8.44896 21.8594 8.27472 21.611 8.17184C21.3626 8.06895 21.0893 8.04203 20.8256 8.09448C20.5619 8.14693 20.3197 8.2764 20.1296 8.46651C19.9395 8.65662 19.81 8.89884 19.7576 9.16253C19.7051 9.42623 19.732 9.69955 19.8349 9.94794C19.9378 10.1963 20.112 10.4086 20.3356 10.558C20.5591 10.7074 20.822 10.7871 21.0908 10.7871C21.4513 10.7871 21.7971 10.6439 22.052 10.389C22.307 10.134 22.4502 9.78826 22.4502 9.42773Z" fill="#FEFEFE"/>
</g>
</svg>
