<svg width="30" height="30" viewBox="0 0 30 30" fill="none" xmlns="http://www.w3.org/2000/svg">
<g id="ri:linkedin-fill">
<path id="Vector" d="M8.53353 7.23697C8.53321 7.87791 8.27829 8.49247 7.82485 8.94546C7.37141 9.39844 6.75659 9.65275 6.11565 9.65243C5.47471 9.65211 4.86015 9.39719 4.40717 8.94375C3.95418 8.49031 3.69988 7.87549 3.7002 7.23455C3.70052 6.59361 3.95544 5.97905 4.40888 5.52606C4.86231 5.07308 5.47713 4.81877 6.11807 4.81909C6.75901 4.81941 7.37357 5.07433 7.82656 5.52777C8.27954 5.98121 8.53385 6.59603 8.53353 7.23697ZM8.60603 11.442H3.7727V26.5703H8.60603V11.442ZM16.2427 11.442H11.4335V26.5703H16.1944V18.6316C16.1944 14.2091 21.9581 13.7982 21.9581 18.6316V26.5703H26.731V16.9882C26.731 9.5328 18.2002 9.81072 16.1944 13.472L16.2427 11.442Z" fill="#F9FCFF"/>
</g>
</svg>
