<svg width="20" height="25" viewBox="0 0 20 25" fill="none" xmlns="http://www.w3.org/2000/svg">
<path d="M9.70085 12.3187C10.3654 12.3187 10.9344 12.0821 11.4076 11.6088C11.8809 11.1355 12.1175 10.5666 12.1175 9.90202C12.1175 9.23743 11.8809 8.66851 11.4076 8.19525C10.9344 7.72198 10.3654 7.48535 9.70085 7.48535C9.03626 7.48535 8.46734 7.72198 7.99408 8.19525C7.52081 8.66851 7.28418 9.23743 7.28418 9.90202C7.28418 10.5666 7.52081 11.1355 7.99408 11.6088C8.46734 12.0821 9.03626 12.3187 9.70085 12.3187ZM9.70085 24.402C6.45849 21.643 4.03678 19.0803 2.43574 16.714C0.834701 14.3477 0.0341797 12.1576 0.0341797 10.1437C0.0341797 7.12285 1.00588 4.71625 2.94928 2.92389C4.89269 1.13153 7.14321 0.235352 9.70085 0.235352C12.2585 0.235352 14.509 1.13153 16.4524 2.92389C18.3958 4.71625 19.3675 7.12285 19.3675 10.1437C19.3675 12.1576 18.567 14.3477 16.966 16.714C15.3649 19.0803 12.9432 21.643 9.70085 24.402Z" fill="#F9FCFF"/>
</svg>
