<svg xmlns="http://www.w3.org/2000/svg" width="30" height="29" fill="none" viewBox="0 0 30 29"><g id="Frame 1000002353"><g id="location_on"><mask id="mask0_199_473" style="mask-type:alpha" width="30" height="29" x="0" y="0" maskUnits="userSpaceOnUse"><rect id="Bounding box" width="29" height="29" x=".25" fill="#D9D9D9"/></mask><g mask="url(#mask0_199_473)"><path id="location_on_2" fill="url(#paint0_linear_199_473)" d="M14.7507 14.5003C15.4152 14.5003 15.9842 14.2637 16.4574 13.7904C16.9307 13.3172 17.1673 12.7482 17.1673 12.0837C17.1673 11.4191 16.9307 10.8502 16.4574 10.3769C15.9842 9.90362 15.4152 9.66699 14.7507 9.66699C14.0861 9.66699 13.5171 9.90362 13.0439 10.3769C12.5706 10.8502 12.334 11.4191 12.334 12.0837C12.334 12.7482 12.5706 13.3172 13.0439 13.7904C13.5171 14.2637 14.0861 14.5003 14.7507 14.5003ZM14.7507 26.5837C11.5083 23.8246 9.08659 21.262 7.48555 18.8956C5.88451 16.5293 5.08398 14.3392 5.08398 12.3253C5.08398 9.30449 6.05569 6.89789 7.99909 5.10553C9.94249 3.31317 12.193 2.41699 14.7507 2.41699C17.3083 2.41699 19.5588 3.31317 21.5022 5.10553C23.4456 6.89789 24.4173 9.30449 24.4173 12.3253C24.4173 14.3392 23.6168 16.5293 22.0158 18.8956C20.4147 21.262 17.993 23.8246 14.7507 26.5837Z"/></g></g></g><defs><linearGradient id="paint0_linear_199_473" x1="5.585" x2="30.363" y1="2.417" y2="17.241" gradientUnits="userSpaceOnUse"><stop/><stop offset="1" stop-color="#1E1E1E"/></linearGradient></defs></svg>