<svg width="25" height="25" viewBox="0 0 25 25" fill="none" xmlns="http://www.w3.org/2000/svg">
<g id="Frame 1000002352">
<g id="Group 48095398">
<path id="Vector" fill-rule="evenodd" clip-rule="evenodd" d="M21.0564 3.6942C18.7945 1.43027 15.7866 0.182977 12.5814 0.181641C5.97765 0.181641 0.603173 5.55412 0.6005 12.158C0.597893 14.2596 1.1495 16.3248 2.19968 18.1452L0.5 24.3516L6.85128 22.6862C8.60802 23.6426 10.5764 24.1438 12.5766 24.144H12.5815C19.1845 24.144 24.5596 18.7708 24.5623 12.1671C24.5635 8.96684 23.3185 5.95759 21.0564 3.69406V3.6942ZM12.5815 22.1217H12.5774C10.7941 22.1219 9.04354 21.6426 7.50908 20.734L7.14543 20.5183L3.37668 21.5073L4.38262 17.8338L4.1462 17.4566C3.14843 15.8698 2.62022 14.033 2.62266 12.1587C2.62534 6.67004 7.09251 2.20474 12.5854 2.20474C15.2449 2.20581 17.7454 3.24262 19.6255 5.12432C21.5056 7.00602 22.5404 9.50703 22.5389 12.1673C22.5368 17.6565 18.0697 22.1223 12.5811 22.1223L12.5815 22.1217Z" fill="url(#paint0_linear_199_472)"/>
<path id="Vector_2" fill-rule="evenodd" clip-rule="evenodd" d="M8.56485 17.9591C8.64918 18.0099 8.82238 18.0099 9.21971 18.0095C10.9056 18.008 12.3618 18.003 13.3977 18.003C18.2317 18.003 18.1046 12.9139 15.8444 12.279C16.1755 11.6926 17.6838 10.5908 16.7509 8.31352C15.8288 6.06176 11.8616 6.57282 9.14847 6.57415C8.14454 6.57415 8.29476 7.31601 8.29984 8.46935C8.30812 10.2961 8.30131 15.2407 8.29984 17.3782C8.29984 17.8115 8.43067 17.878 8.56485 17.9591ZM10.6565 16.0941C11.1129 16.0941 12.1895 16.0941 13.1125 16.0927C14.1576 16.0911 15.0881 15.6022 15.0649 14.5618C15.0479 13.5818 14.3959 13.2601 13.4908 13.1703C12.6288 13.1786 11.6429 13.1786 10.6565 13.1786V16.0941ZM10.6565 11.2103C12.4747 11.1853 13.1762 11.2835 14.1689 11.0349C14.8505 10.6473 15.1491 9.21174 14.1728 8.72395C13.4946 8.38516 11.4904 8.50103 10.6565 8.53577V11.2103Z" fill="url(#paint1_linear_199_472)"/>
</g>
</g>
<defs>
<linearGradient id="paint0_linear_199_472" x1="1.12405" y1="0.18164" x2="28.0655" y2="20.241" gradientUnits="userSpaceOnUse">
<stop/>
<stop offset="1" stop-color="white"/>
</linearGradient>
<linearGradient id="paint1_linear_199_472" x1="8.52416" y1="6.52344" x2="20.2243" y2="13.4294" gradientUnits="userSpaceOnUse">
<stop/>
<stop offset="1" stop-color="white"/>
</linearGradient>
</defs>
</svg>
