<svg width="25" height="25" viewBox="0 0 25 25" fill="none" xmlns="http://www.w3.org/2000/svg">
<path fill-rule="evenodd" clip-rule="evenodd" d="M21.0066 3.51256C18.7447 1.24863 15.7368 0.00133644 12.5316 0C5.92785 0 0.553368 5.37248 0.550695 11.9763C0.548088 14.078 1.09969 16.1432 2.14988 17.9636L0.450195 24.17L6.80148 22.5045C8.55822 23.461 10.5265 23.9622 12.5268 23.9623H12.5317C19.1347 23.9623 24.5098 18.5892 24.5125 11.9854C24.5137 8.7852 23.2687 5.77595 21.0066 3.51242V3.51256ZM12.5317 21.94H12.5276C10.7443 21.9403 8.99373 21.461 7.45927 20.5524L7.09563 20.3367L3.32688 21.3257L4.33281 17.6522L4.0964 17.2749C3.09862 15.6882 2.57041 13.8514 2.57286 11.977C2.57553 6.4884 7.04271 2.0231 12.5356 2.0231C15.1951 2.02417 17.6956 3.06098 19.5757 4.94268C21.4558 6.82438 22.4906 9.32539 22.4891 11.9857C22.487 17.4749 18.0199 21.9407 12.5313 21.9407L12.5317 21.94Z" fill="#F9FCFF"/>
<path fill-rule="evenodd" clip-rule="evenodd" d="M8.51505 17.7775C8.59938 17.8283 8.77258 17.8283 9.1699 17.8279C10.8558 17.8264 12.312 17.8213 13.3479 17.8213C18.1819 17.8213 18.0548 12.7323 15.7946 12.0974C16.1257 11.5109 17.634 10.4092 16.7011 8.13188C15.779 5.88012 11.8118 6.39117 9.09867 6.39251C8.09474 6.39251 8.24495 7.13437 8.25003 8.28771C8.25832 10.1145 8.2515 15.059 8.25003 17.1965C8.25003 17.6298 8.38087 17.6964 8.51505 17.7775ZM10.6067 15.9125C11.0631 15.9125 12.1397 15.9125 13.0627 15.911C14.1078 15.9094 15.0383 15.4205 15.0151 14.3801C14.9981 13.4001 14.3461 13.0784 13.441 12.9886C12.579 12.9969 11.5931 12.9969 10.6067 12.9969V15.9125ZM10.6067 11.0286C12.4249 11.0036 13.1264 11.1018 14.1191 10.8533C14.8007 10.4657 15.0993 9.0301 14.123 8.5423C13.4448 8.20352 11.4406 8.31939 10.6067 8.35413V11.0286Z" fill="#F9FCFF"/>
</svg>
