<svg xmlns="http://www.w3.org/2000/svg" width="25" height="25" viewBox="0 0 25 25" fill="none">
<path d="M12.5999 2.5C7.08985 2.5 2.59985 6.99 2.59985 12.5C2.59985 18.01 7.08985 22.5 12.5999 22.5C18.1099 22.5 22.5999 18.01 22.5999 12.5C22.5999 6.99 18.1099 2.5 12.5999 2.5ZM15.9599 14.8C16.2499 15.09 16.2499 15.57 15.9599 15.86C15.8099 16.01 15.6199 16.08 15.4299 16.08C15.2399 16.08 15.0499 16.01 14.8999 15.86L12.5999 13.56L10.2999 15.86C10.1499 16.01 9.95985 16.08 9.76985 16.08C9.57985 16.08 9.38985 16.01 9.23985 15.86C8.94985 15.57 8.94985 15.09 9.23985 14.8L11.5399 12.5L9.23985 10.2C8.94985 9.91 8.94985 9.43 9.23985 9.14C9.52985 8.85 10.0099 8.85 10.2999 9.14L12.5999 11.44L14.8999 9.14C15.1899 8.85 15.6699 8.85 15.9599 9.14C16.2499 9.43 16.2499 9.91 15.9599 10.2L13.6599 12.5L15.9599 14.8Z" fill="white"/>
</svg>