<svg xmlns="http://www.w3.org/2000/svg" width="24" height="24" viewBox="0 0 24 24" fill="none">
  <rect x="2" y="2" width="20" height="20" rx="5" fill="#1A1A1A"/>
  <path d="M8.1 6.9l7.2 4.4c.4.2.4.8 0 1l-7.2 4.4c-.5.3-1.1-.1-1.1-.7V7.6c0-.6.6-1 .1-.7z" fill="#34A853"/>
  <path d="M8.2 16.7l6.7-4.1l1.7 1c.4.2.4.8 0 1l-7.2 4.4c-.4.2-.9.1-1.1-.3c-.1-.1-.1-.2-.1-.4c0-.7.6-1 .1-.7z" fill="#188038"/>
  <path d="M8.1 6.9l6.7 4.1l1.7-1c.4-.2.4-.8 0-1L9.3 4.6c-.4-.2-.9-.1-1.1.3c-.1.1-.1.2-.1.4c0 .7.6 1 .1.7z" fill="#FBBC05"/>
  <path d="M14.9 10.9L8.1 6.9c-.5-.3-.1-.9.4-.7l7.2 4.4c.3.2.3.6 0 .8l-1 .5c.2-.2.2-.5 0-.7z" fill="#EA4335"/>
</svg>

