<svg width="30" height="30" viewBox="0 0 30 30" fill="none" xmlns="http://www.w3.org/2000/svg">
<mask id="mask0_69_447" style="mask-type:alpha" maskUnits="userSpaceOnUse" x="0" y="0" width="30" height="30">
<rect x="0.450195" y="0.818359" width="29" height="29" fill="#BF631C"/>
</mask>
<g mask="url(#mask0_69_447)">
<path d="M24.5564 26.1934C21.9585 26.1934 19.4261 25.6144 16.9591 24.4564C14.492 23.2984 12.307 21.7678 10.4038 19.8647C8.50072 17.9616 6.97016 15.7765 5.81217 13.3095C4.65419 10.8425 4.0752 8.31003 4.0752 5.71211C4.0752 5.34961 4.19603 5.04753 4.4377 4.80586C4.67936 4.56419 4.98145 4.44336 5.34395 4.44336H10.2377C10.5196 4.44336 10.7714 4.53398 10.9929 4.71523C11.2144 4.89648 11.3453 5.12808 11.3856 5.41003L12.171 9.63919C12.2113 9.92114 12.2063 10.1779 12.1559 10.4095C12.1056 10.6411 11.9898 10.8475 11.8085 11.0288L8.90853 13.9892C9.75436 15.4392 10.8117 16.7986 12.0804 18.0673C13.3492 19.3361 14.7488 20.4336 16.2794 21.36L19.1189 18.5204C19.3002 18.3392 19.5368 18.2033 19.8288 18.1126C20.1209 18.022 20.4078 17.9968 20.6898 18.0371L24.8585 18.8829C25.1405 18.9434 25.3721 19.0793 25.5533 19.2908C25.7346 19.5022 25.8252 19.7489 25.8252 20.0309V24.9246C25.8252 25.2871 25.7044 25.5892 25.4627 25.8309C25.221 26.0725 24.9189 26.1934 24.5564 26.1934Z" fill="#BF631C" />
</g>
</svg>
