<svg width="28" height="27" viewBox="0 0 28 27" fill="none" xmlns="http://www.w3.org/2000/svg">
<path d="M25.1827 13.4644C25.1846 14.9423 24.8936 16.4059 24.3265 17.7706C23.7594 19.1354 22.9275 20.3742 21.8789 21.4156C20.8388 22.4539 19.6043 23.277 18.246 23.8379C16.8876 24.3988 15.432 24.6865 13.9624 24.6846C7.7655 24.6846 2.7422 19.6613 2.7422 13.4644C2.73827 10.5874 3.84339 7.81957 5.82776 5.73645C6.8748 4.63159 8.13628 3.75201 9.535 3.15152C10.9337 2.55104 12.4403 2.24228 13.9624 2.24415C15.432 2.24225 16.8876 2.52998 18.246 3.09089C19.6043 3.65181 20.8388 4.47491 21.8789 5.51317C22.9275 6.55453 23.7594 7.79339 24.3265 9.15814C24.8936 10.5229 25.1846 11.9865 25.1827 13.4644Z" stroke="#BF631C" stroke-width="2.24405" stroke-linecap="round" stroke-linejoin="round"/>
<path d="M25.1825 13.4652C23.5455 13.4652 19.0293 12.8481 14.9872 14.6225C10.5962 16.5507 7.41695 19.5415 6.03125 21.4018" stroke="#BF631C" stroke-width="2.24405" stroke-linecap="round" stroke-linejoin="round"/>
<path d="M9.75391 3.05859C11.5099 4.67936 15.3416 8.8056 16.7666 12.9021C18.1915 16.9986 18.7189 22.0354 19.0443 23.4688" stroke="#BF631C" stroke-width="2.24405" stroke-linecap="round" stroke-linejoin="round"/>
<path d="M2.82812 12.062C4.94763 12.1899 10.5583 12.3049 14.1488 10.7717C17.7393 9.23846 20.8288 6.41825 21.8885 5.52344M3.58325 17.7355C4.57193 20.1288 6.35504 22.1082 8.63235 23.3406" stroke="#BF631C" stroke-width="2.24405" stroke-linecap="round" stroke-linejoin="round"/>
<path d="M2.7422 13.4644C2.73827 10.5874 3.84339 7.81957 5.82776 5.73645C6.8748 4.63159 8.13628 3.75201 9.535 3.15152C10.9337 2.55103 12.4403 2.24228 13.9624 2.24415M18.4505 3.17767C19.7283 3.73674 20.8909 4.52872 21.8789 5.51317C22.9275 6.55453 23.7594 7.79338 24.3265 9.15814C24.8936 10.5229 25.1846 11.9865 25.1827 13.4644C25.1827 14.8456 24.933 16.169 24.4758 17.3915M13.9624 24.6846C15.432 24.6865 16.8876 24.3988 18.246 23.8379C19.6043 23.277 20.8388 22.4539 21.8789 21.4156" stroke="#BF631C" stroke-width="2.24405" stroke-linecap="round" stroke-linejoin="round"/>
</svg>
