<svg width="30" height="30" viewBox="0 0 30 30" fill="none" xmlns="http://www.w3.org/2000/svg">
<mask id="mask0_69_451" style="mask-type:alpha" maskUnits="userSpaceOnUse" x="0" y="0" width="30" height="30">
<rect x="0.700195" y="0.818359" width="29" height="29" fill="#D9D9D9"/>
</mask>
<g mask="url(#mask0_69_451)">
<path d="M15.1995 27.402C13.5482 27.402 11.9874 27.0848 10.5173 26.4505C9.04711 25.8161 7.76326 24.9501 6.66569 23.8525C5.56812 22.755 4.70215 21.4711 4.06777 20.001C3.4334 18.5308 3.11621 16.9701 3.11621 15.3187C3.11621 13.6472 3.4334 12.0814 4.06777 10.6213C4.70215 9.16122 5.56812 7.8824 6.66569 6.78483C7.76326 5.68726 9.04711 4.82129 10.5173 4.18691C11.9874 3.55254 13.5482 3.23535 15.1995 3.23535C16.8711 3.23535 18.4369 3.55254 19.8969 4.18691C21.357 4.82129 22.6358 5.68726 23.7334 6.78483C24.831 7.8824 25.6969 9.16122 26.3313 10.6213C26.9657 12.0814 27.2829 13.6472 27.2829 15.3187V17.0708C27.2829 18.259 26.8751 19.2709 26.0594 20.1067C25.2438 20.9425 24.2419 21.3603 23.0537 21.3603C22.3287 21.3603 21.6541 21.1992 21.0298 20.877C20.4054 20.5548 19.8919 20.1319 19.4891 19.6083C18.9454 20.152 18.306 20.58 17.5709 20.8921C16.8358 21.2043 16.0454 21.3603 15.1995 21.3603C13.528 21.3603 12.1032 20.7713 10.9251 19.5932C9.74694 18.415 9.15788 16.9902 9.15788 15.3187C9.15788 13.6472 9.74694 12.2223 10.9251 11.0442C12.1032 9.86608 13.528 9.27702 15.1995 9.27702C16.8711 9.27702 18.2959 9.86608 19.474 11.0442C20.6521 12.2223 21.2412 13.6472 21.2412 15.3187V17.0708C21.2412 17.6548 21.4225 18.113 21.785 18.4452C22.1475 18.7775 22.5704 18.9437 23.0537 18.9437C23.537 18.9437 23.96 18.7775 24.3225 18.4452C24.685 18.113 24.8662 17.6548 24.8662 17.0708V15.3187C24.8662 12.6805 23.9146 10.4098 22.0115 8.50671C20.1084 6.60358 17.8377 5.65202 15.1995 5.65202C12.5613 5.65202 10.2907 6.60358 8.38757 8.50671C6.48444 10.4098 5.53288 12.6805 5.53288 15.3187C5.53288 17.9569 6.48444 20.2275 8.38757 22.1307C10.2907 24.0338 12.5613 24.9853 15.1995 24.9853H21.2412V27.402H15.1995ZM15.1995 18.9437C16.2065 18.9437 17.0624 18.5913 17.7673 17.8864C18.4721 17.1815 18.8245 16.3256 18.8245 15.3187C18.8245 14.3117 18.4721 13.4558 17.7673 12.751C17.0624 12.0461 16.2065 11.6937 15.1995 11.6937C14.1926 11.6937 13.3367 12.0461 12.6318 12.751C11.927 13.4558 11.5745 14.3117 11.5745 15.3187C11.5745 16.3256 11.927 17.1815 12.6318 17.8864C13.3367 18.5913 14.1926 18.9437 15.1995 18.9437Z" fill="#BF631C"/>
</g>
</svg>
