<svg width="24" height="25" viewBox="0 0 24 25" fill="none" xmlns="http://www.w3.org/2000/svg">
<path d="M12 22.8438C17.5228 22.8438 22 18.3666 22 12.8438C22 7.3209 17.5228 2.84375 12 2.84375C6.47715 2.84375 2 7.3209 2 12.8438C2 18.3666 6.47715 22.8438 12 22.8438Z" stroke="#BF631C" stroke-width="1.5" stroke-linecap="round" stroke-linejoin="round"/>
<path d="M8.00156 3.84375H9.00156C7.05156 9.68375 7.05156 16.0037 9.00156 21.8438H8.00156" stroke="#BF631C" stroke-width="1.5" stroke-linecap="round" stroke-linejoin="round"/>
<path d="M15 3.84375C16.95 9.68375 16.95 16.0037 15 21.8438" stroke="#BF631C" stroke-width="1.5" stroke-linecap="round" stroke-linejoin="round"/>
<path d="M3 16.8438V15.8438C8.84 17.7938 15.16 17.7938 21 15.8438V16.8438" stroke="#BF631C" stroke-width="1.5" stroke-linecap="round" stroke-linejoin="round"/>
<path d="M3 9.84336C8.84 7.89336 15.16 7.89336 21 9.84336" stroke="#BF631C" stroke-width="1.5" stroke-linecap="round" stroke-linejoin="round"/>
</svg>
