<svg width="30" height="29" viewBox="0 0 30 29" fill="none" xmlns="http://www.w3.org/2000/svg">
<path d="M18.625 14.5C18.625 15.217 18.4124 15.9178 18.0141 16.5139C17.6158 17.1101 17.0496 17.5747 16.3872 17.8491C15.7248 18.1234 14.996 18.1952 14.2928 18.0553C13.5896 17.9155 12.9437 17.5702 12.4367 17.0633C11.9298 16.5563 11.5845 15.9104 11.4447 15.2072C11.3048 14.504 11.3766 13.7752 11.6509 13.1128C11.9253 12.4504 12.3899 11.8842 12.9861 11.4859C13.5822 11.0876 14.283 10.875 15 10.875C15.9605 10.878 16.8808 11.2609 17.56 11.94C18.2391 12.6192 18.622 13.5395 18.625 14.5ZM26.3281 9.51562V19.4844C26.3281 21.1668 25.6598 22.7804 24.4701 23.9701C23.2804 25.1598 21.6668 25.8281 19.9844 25.8281H10.0156C8.33316 25.8281 6.7196 25.1598 5.52992 23.9701C4.34023 22.7804 3.67188 21.1668 3.67188 19.4844V9.51562C3.67188 7.83316 4.34023 6.2196 5.52992 5.02992C6.7196 3.84023 8.33316 3.17188 10.0156 3.17188H19.9844C21.6668 3.17188 23.2804 3.84023 24.4701 5.02992C25.6598 6.2196 26.3281 7.83316 26.3281 9.51562ZM20.4375 14.5C20.4375 13.4246 20.1186 12.3733 19.5211 11.4791C18.9236 10.5849 18.0744 9.88796 17.0808 9.47641C16.0873 9.06485 14.994 8.95717 13.9392 9.16698C12.8844 9.37679 11.9156 9.89466 11.1551 10.6551C10.3947 11.4156 9.87679 12.3844 9.66698 13.4392C9.45717 14.494 9.56485 15.5873 9.97641 16.5808C10.388 17.5744 11.0849 18.4236 11.9791 19.0211C12.8733 19.6186 13.9246 19.9375 15 19.9375C16.4421 19.9375 17.8252 19.3646 18.8449 18.3449C19.8646 17.3252 20.4375 15.9421 20.4375 14.5ZM22.25 8.60938C22.25 8.34052 22.1703 8.0777 22.0209 7.85415C21.8715 7.6306 21.6592 7.45636 21.4108 7.35348C21.1624 7.25059 20.8891 7.22367 20.6254 7.27612C20.3617 7.32857 20.1195 7.45804 19.9294 7.64815C19.7393 7.83826 19.6098 8.08048 19.5574 8.34417C19.5049 8.60787 19.5318 8.88119 19.6347 9.12959C19.7376 9.37798 19.9118 9.59028 20.1354 9.73965C20.3589 9.88902 20.6218 9.96875 20.8906 9.96875C21.2512 9.96875 21.5969 9.82553 21.8518 9.5706C22.1068 9.31567 22.25 8.9699 22.25 8.60938Z" fill="#BF631C"/>
</svg>
