<svg width="30" height="29" viewBox="0 0 30 29" fill="none" xmlns="http://www.w3.org/2000/svg">
<path d="M9.13411 6.04092C9.13379 6.68186 8.87887 7.29642 8.42544 7.74941C7.972 8.2024 7.35718 8.4567 6.71624 8.45638C6.0753 8.45606 5.46074 8.20114 5.00775 7.7477C4.55477 7.29426 4.30046 6.67945 4.30078 6.03851C4.3011 5.39757 4.55602 4.783 5.00946 4.33002C5.4629 3.87703 6.07772 3.62273 6.71866 3.62305C7.3596 3.62337 7.97416 3.87829 8.42714 4.33173C8.88013 4.78517 9.13444 5.39998 9.13411 6.04092ZM9.20661 10.2459H4.37328V25.3743H9.20661V10.2459ZM16.8433 10.2459H12.0341V25.3743H16.7949V17.4355C16.7949 13.013 22.5587 12.6022 22.5587 17.4355V25.3743H27.3316V15.7922C27.3316 8.33676 18.8008 8.61467 16.7949 12.2759L16.8433 10.2459Z" fill="#BF631C"/>
</svg>
