<svg width="34" height="32" viewBox="0 0 34 32" fill="none" xmlns="http://www.w3.org/2000/svg">
<path d="M17.0035 10.3327C15.9094 10.3327 14.8602 10.7541 14.0866 11.5043C13.3131 12.2544 12.8785 13.2718 12.8785 14.3327C12.8785 15.3935 13.3131 16.411 14.0866 17.1611C14.8602 17.9113 15.9094 18.3327 17.0035 18.3327C18.0975 18.3327 19.1467 17.9113 19.9203 17.1611C20.6939 16.411 21.1285 15.3935 21.1285 14.3327C21.1285 13.2718 20.6939 12.2544 19.9203 11.5043C19.1467 10.7541 18.0975 10.3327 17.0035 10.3327ZM14.5972 14.3327C14.5972 13.7138 14.8507 13.1203 15.302 12.6828C15.7532 12.2452 16.3653 11.9993 17.0035 11.9993C17.6416 11.9993 18.2537 12.2452 18.7049 12.6828C19.1562 13.1203 19.4097 13.7138 19.4097 14.3327C19.4097 14.9515 19.1562 15.545 18.7049 15.9826C18.2537 16.4202 17.6416 16.666 17.0035 16.666C16.3653 16.666 15.7532 16.4202 15.302 15.9826C14.8507 15.545 14.5972 14.9515 14.5972 14.3327ZM25.9375 21.3327L19.002 28.4727C18.7449 28.7374 18.4347 28.9484 18.0904 29.0926C17.7461 29.2368 17.375 29.3111 17 29.3111C16.625 29.3111 16.2539 29.2368 15.9096 29.0926C15.5654 28.9484 15.2551 28.7374 14.998 28.4727L8.06252 21.3327H8.08864L8.07695 21.3193L8.06252 21.3027C6.28237 19.2611 5.30779 16.6729 5.31252 13.9993C5.31252 7.74002 10.5451 2.66602 17 2.66602C23.455 2.66602 28.6875 7.74002 28.6875 13.9993C28.6922 16.6729 27.7177 19.2611 25.9375 21.3027L25.9231 21.3193L25.9114 21.3327H25.9375ZM24.6017 20.2533C26.1335 18.5085 26.9729 16.2908 26.9688 13.9993C26.9688 8.66068 22.5055 4.33268 17 4.33268C11.4945 4.33268 7.03127 8.66068 7.03127 13.9993C7.02697 16.2909 7.86635 18.5086 9.39833 20.2533L9.61008 20.4953L16.2493 27.3293C16.3457 27.4286 16.462 27.5077 16.5911 27.5618C16.7202 27.6159 16.8594 27.6438 17 27.6438C17.1407 27.6438 17.2798 27.6159 17.4089 27.5618C17.538 27.5077 17.6544 27.4286 17.7508 27.3293L24.39 20.4953L24.6017 20.2533Z" fill="#BF631C"/>
</svg>
