<svg width="29" height="30" viewBox="0 0 29 30" fill="none" xmlns="http://www.w3.org/2000/svg">
<path d="M23.0182 6.11398C21.9104 4.99497 20.5909 4.10774 19.1366 3.50404C17.6823 2.90034 16.1224 2.59224 14.5478 2.59773C7.95031 2.59773 2.57323 7.97481 2.57323 14.5723C2.57323 16.6869 3.12906 18.7411 4.16823 20.5536L2.47656 26.7644L8.82031 25.0969C10.5724 26.0515 12.542 26.559 14.5478 26.559C21.1453 26.559 26.5224 21.1819 26.5224 14.5844C26.5224 11.3823 25.2778 8.37356 23.0182 6.11398ZM14.5478 24.529C12.7595 24.529 11.0074 24.0456 9.47281 23.1394L9.11031 22.9219L5.34031 23.9127L6.34323 20.2394L6.10156 19.8648C5.10801 18.2782 4.58044 16.4443 4.57906 14.5723C4.57906 9.08648 9.0499 4.61565 14.5357 4.61565C17.1941 4.61565 19.6953 5.65481 21.5682 7.53981C22.4956 8.46293 23.2305 9.56095 23.7304 10.7702C24.2303 11.9795 24.4852 13.2759 24.4803 14.5844C24.5045 20.0702 20.0336 24.529 14.5478 24.529ZM20.0095 17.0856C19.7074 16.9406 18.2332 16.2156 17.9674 16.1069C17.6895 16.0102 17.4961 15.9619 17.2907 16.2519C17.0853 16.554 16.5174 17.2306 16.3482 17.424C16.1791 17.6294 15.9978 17.6536 15.6957 17.4965C15.3936 17.3515 14.427 17.0252 13.2911 16.0102C12.397 15.2127 11.8049 14.234 11.6236 13.9319C11.4545 13.6298 11.5995 13.4727 11.7566 13.3156C11.8895 13.1827 12.0586 12.9652 12.2036 12.7961C12.3486 12.6269 12.4091 12.494 12.5057 12.3006C12.6024 12.0952 12.5541 11.9261 12.4816 11.7811C12.4091 11.6361 11.8049 10.1619 11.5632 9.55773C11.3216 8.97773 11.0678 9.05023 10.8866 9.03815H10.3066C10.1011 9.03815 9.78698 9.11064 9.50906 9.41273C9.24323 9.71481 8.4699 10.4398 8.4699 11.914C8.4699 13.3881 9.54531 14.814 9.69031 15.0073C9.83531 15.2127 11.8049 18.2336 14.8016 19.5265C15.5145 19.8406 16.0703 20.0219 16.5053 20.1548C17.2182 20.3844 17.8707 20.3481 18.3903 20.2756C18.9703 20.1911 20.1666 19.5506 20.4082 18.8498C20.662 18.149 20.662 17.5569 20.5774 17.424C20.4928 17.2911 20.3116 17.2306 20.0095 17.0856Z" fill="#BF631C"/>
</svg>
