<svg width="30" height="29" viewBox="0 0 30 29" fill="none" xmlns="http://www.w3.org/2000/svg">
<g id="ic:baseline-whatsapp">
<path id="Vector" d="M23.7184 5.93331C22.6106 4.81431 21.2911 3.92708 19.8368 3.32338C18.3825 2.71967 16.8226 2.41158 15.248 2.41706C8.65051 2.41706 3.27342 7.79415 3.27342 14.3916C3.27342 16.5062 3.82926 18.5604 4.86842 20.3729L3.17676 26.5837L9.52051 24.9162C11.2726 25.8708 13.2422 26.3783 15.248 26.3783C21.8455 26.3783 27.2226 21.0012 27.2226 14.4037C27.2226 11.2016 25.978 8.1929 23.7184 5.93331ZM15.248 24.3483C13.4597 24.3483 11.7076 23.865 10.173 22.9587L9.81051 22.7412L6.04051 23.7321L7.04342 20.0587L6.80176 19.6841C5.8082 18.0976 5.28064 16.2636 5.27926 14.3916C5.27926 8.90581 9.75009 4.43498 15.2359 4.43498C17.8943 4.43498 20.3955 5.47415 22.2684 7.35915C23.1958 8.28227 23.9307 9.38028 24.4306 10.5895C24.9305 11.7988 25.1854 13.0952 25.1805 14.4037C25.2047 19.8896 20.7338 24.3483 15.248 24.3483ZM20.7097 16.905C20.4076 16.76 18.9334 16.035 18.6676 15.9262C18.3897 15.8296 18.1963 15.7812 17.9909 16.0712C17.7855 16.3733 17.2176 17.05 17.0484 17.2433C16.8793 17.4487 16.698 17.4729 16.3959 17.3158C16.0938 17.1708 15.1272 16.8446 13.9913 15.8296C13.0972 15.0321 12.5051 14.0533 12.3238 13.7512C12.1547 13.4491 12.2997 13.2921 12.4568 13.135C12.5897 13.0021 12.7588 12.7846 12.9038 12.6154C13.0488 12.4462 13.1093 12.3133 13.2059 12.12C13.3026 11.9146 13.2543 11.7454 13.1818 11.6004C13.1093 11.4554 12.5051 9.98123 12.2634 9.37706C12.0218 8.79706 11.768 8.86956 11.5868 8.85748H11.0068C10.8013 8.85748 10.4872 8.92998 10.2093 9.23206C9.94342 9.53415 9.17009 10.2591 9.17009 11.7333C9.17009 13.2075 10.2455 14.6333 10.3905 14.8266C10.5355 15.0321 12.5051 18.0529 15.5018 19.3458C16.2147 19.66 16.7705 19.8412 17.2055 19.9741C17.9184 20.2037 18.5709 20.1675 19.0905 20.095C19.6705 20.0104 20.8668 19.37 21.1084 18.6691C21.3622 17.9683 21.3622 17.3762 21.2776 17.2433C21.193 17.1104 21.0118 17.05 20.7097 16.905Z" fill="#F9FCFF"/>
</g>
</svg>
