<svg xmlns="http://www.w3.org/2000/svg" width="25" height="25" fill="none" viewBox="0 0 25 25"><g id="call"><g id="Group"><path id="Vector" fill="url(#paint0_linear_76_458)" d="M21.8346 15.9405C20.4877 15.9405 19.1651 15.7298 17.9119 15.3157C17.2978 15.1062 16.5428 15.2984 16.168 15.6833L13.6944 17.5507C10.8256 16.0193 9.05848 14.2528 7.54805 11.4056L9.36047 8.99633C9.83135 8.52608 10.0002 7.83915 9.79789 7.19462C9.38195 5.93478 9.17066 4.61289 9.17066 3.26539C9.17072 2.29194 8.37877 1.5 7.40539 1.5H3.36518C2.3918 1.5 1.59985 2.29194 1.59985 3.26533C1.59985 14.4229 10.677 23.5 21.8346 23.5C22.808 23.5 23.5999 22.7081 23.5999 21.7347V17.7058C23.5998 16.7324 22.8079 15.9405 21.8346 15.9405Z"/></g></g><defs><linearGradient id="paint0_linear_76_458" x1="1.6" x2="23.939" y1="2.875" y2="3.267" gradientUnits="userSpaceOnUse"><stop stop-color="#F68C1F"/><stop offset="1" stop-color="#C46300"/></linearGradient></defs></svg>