<svg width="34" height="34" viewBox="0 0 34 34" fill="none" xmlns="http://www.w3.org/2000/svg">
<g id="Instagram - Negative" clip-path="url(#clip0_76_497)">
<g id="Vector">
<path d="M17.0999 3.26829C21.5084 3.26829 22.0305 3.28762 23.7643 3.36497C25.3756 3.43586 26.2458 3.70657 26.8258 3.93215C27.5928 4.22864 28.1471 4.58958 28.7208 5.16321C29.3008 5.74329 29.6553 6.29114 29.9518 7.05813C30.1774 7.63821 30.4481 8.51477 30.519 10.1197C30.5963 11.8599 30.6157 12.382 30.6157 16.7841C30.6157 21.1927 30.5963 21.7148 30.519 23.4486C30.4481 25.0599 30.1774 25.93 29.9518 26.5101C29.6553 27.2771 29.2944 27.8314 28.7208 28.405C28.1407 28.9851 27.5928 29.3396 26.8258 29.6361C26.2458 29.8616 25.3692 30.1323 23.7643 30.2032C22.0241 30.2806 21.502 30.2999 17.0999 30.2999C12.6913 30.2999 12.1692 30.2806 10.4354 30.2032C8.82407 30.1323 7.95396 29.8616 7.37388 29.6361C6.60688 29.3396 6.05259 28.9786 5.47896 28.405C4.89888 27.8249 4.54438 27.2771 4.2479 26.5101C4.02231 25.93 3.75161 25.0534 3.68071 23.4486C3.60337 21.7083 3.58403 21.1863 3.58403 16.7841C3.58403 12.3755 3.60337 11.8534 3.68071 10.1197C3.75161 8.50832 4.02231 7.63821 4.2479 7.05813C4.54438 6.29114 4.90532 5.73684 5.47896 5.16321C6.05903 4.58313 6.60688 4.22864 7.37388 3.93215C7.95396 3.70657 8.83052 3.43586 10.4354 3.36497C12.1692 3.28762 12.6913 3.26829 17.0999 3.26829ZM17.0999 0.296997C12.6204 0.296997 12.0596 0.316333 10.3 0.393677C8.54692 0.471021 7.34165 0.754614 6.29751 1.16067C5.20825 1.58606 4.28657 2.1468 3.37134 3.06848C2.44966 3.98372 1.88892 4.9054 1.46353 5.98821C1.05747 7.03879 0.773877 8.23762 0.696533 9.99075C0.619189 11.7568 0.599854 12.3175 0.599854 16.797C0.599854 21.2765 0.619189 21.8372 0.696533 23.5968C0.773877 25.3499 1.05747 26.5552 1.46353 27.5993C1.88892 28.6886 2.44966 29.6103 3.37134 30.5255C4.28657 31.4407 5.20825 32.0079 6.29106 32.4269C7.34165 32.8329 8.54048 33.1165 10.2936 33.1939C12.0532 33.2712 12.6139 33.2906 17.0934 33.2906C21.5729 33.2906 22.1336 33.2712 23.8932 33.1939C25.6463 33.1165 26.8516 32.8329 27.8958 32.4269C28.9786 32.0079 29.9002 31.4407 30.8155 30.5255C31.7307 29.6103 32.2979 28.6886 32.7168 27.6058C33.1229 26.5552 33.4065 25.3564 33.4838 23.6032C33.5612 21.8437 33.5805 21.2829 33.5805 16.8034C33.5805 12.324 33.5612 11.7632 33.4838 10.0036C33.4065 8.25051 33.1229 7.04524 32.7168 6.0011C32.3108 4.9054 31.7501 3.98372 30.8284 3.06848C29.9131 2.15325 28.9915 1.58606 27.9086 1.16711C26.8581 0.76106 25.6592 0.477466 23.9061 0.400122C22.1401 0.316333 21.5793 0.296997 17.0999 0.296997Z" fill="url(#paint0_linear_76_497)"/>
<path d="M17.0999 8.32141C12.4206 8.32141 8.62427 12.1177 8.62427 16.797C8.62427 21.4763 12.4206 25.2726 17.0999 25.2726C21.7792 25.2726 25.5754 21.4763 25.5754 16.797C25.5754 12.1177 21.7792 8.32141 17.0999 8.32141ZM17.0999 22.2948C14.0641 22.2948 11.602 19.8327 11.602 16.797C11.602 13.7613 14.0641 11.2991 17.0999 11.2991C20.1356 11.2991 22.5977 13.7613 22.5977 16.797C22.5977 19.8327 20.1356 22.2948 17.0999 22.2948Z" fill="url(#paint1_linear_76_497)"/>
<path d="M27.8893 7.9862C27.8893 9.0819 26.9999 9.96491 25.9106 9.96491C24.8149 9.96491 23.9319 9.07545 23.9319 7.9862C23.9319 6.89049 24.8213 6.00748 25.9106 6.00748C26.9999 6.00748 27.8893 6.89694 27.8893 7.9862Z" fill="url(#paint2_linear_76_497)"/>
</g>
</g>
<defs>
<linearGradient id="paint0_linear_76_497" x1="0.599853" y1="2.35912" x2="34.0886" y2="2.94641" gradientUnits="userSpaceOnUse">
<stop stop-color="#F68C1F"/>
<stop offset="1" stop-color="#C46300"/>
</linearGradient>
<linearGradient id="paint1_linear_76_497" x1="0.599853" y1="2.35912" x2="34.0886" y2="2.94641" gradientUnits="userSpaceOnUse">
<stop stop-color="#F68C1F"/>
<stop offset="1" stop-color="#C46300"/>
</linearGradient>
<linearGradient id="paint2_linear_76_497" x1="0.599853" y1="2.35912" x2="34.0886" y2="2.94641" gradientUnits="userSpaceOnUse">
<stop stop-color="#F68C1F"/>
<stop offset="1" stop-color="#C46300"/>
</linearGradient>
<clipPath id="clip0_76_497">
<rect width="33" height="33" fill="white" transform="translate(0.599854 0.296875)"/>
</clipPath>
</defs>
</svg>
