<svg width="34" height="34" viewBox="0 0 34 34" fill="none" xmlns="http://www.w3.org/2000/svg">
<g id="LinkedIn - Negative" clip-path="url(#clip0_76_502)">
<g id="Group">
<path id="Vector" d="M31.1571 0.296875H3.03618C1.68911 0.296875 0.599854 1.36035 0.599854 2.6752V30.9121C0.599854 32.227 1.68911 33.2969 3.03618 33.2969H31.1571C32.5042 33.2969 33.5999 32.227 33.5999 30.9186V2.6752C33.5999 1.36035 32.5042 0.296875 31.1571 0.296875ZM10.3903 28.4178H5.49185V12.6654H10.3903V28.4178ZM7.94106 10.5191C6.36841 10.5191 5.09868 9.24941 5.09868 7.6832C5.09868 6.11699 6.36841 4.84727 7.94106 4.84727C9.50728 4.84727 10.777 6.11699 10.777 7.6832C10.777 9.24297 9.50728 10.5191 7.94106 10.5191ZM28.7207 28.4178H23.8288V20.7607C23.8288 18.9367 23.7965 16.5842 21.2829 16.5842C18.737 16.5842 18.3502 18.5758 18.3502 20.6318V28.4178H13.4647V12.6654H18.1569V14.8182H18.2213C18.8723 13.5807 20.4708 12.2723 22.8491 12.2723C27.8055 12.2723 28.7207 15.5336 28.7207 19.7746V28.4178Z" fill="url(#paint0_linear_76_502)"/>
</g>
</g>
<defs>
<linearGradient id="paint0_linear_76_502" x1="0.599853" y1="2.3594" x2="34.1082" y2="2.94726" gradientUnits="userSpaceOnUse">
<stop stop-color="#F68C1F"/>
<stop offset="1" stop-color="#C46300"/>
</linearGradient>
<clipPath id="clip0_76_502">
<rect width="33" height="33" fill="white" transform="translate(0.599854 0.296875)"/>
</clipPath>
</defs>
</svg>
