<svg width="25" height="25" viewBox="0 0 25 25" fill="none" xmlns="http://www.w3.org/2000/svg">
<g id="pin (1)">
<g id="Pin">
<path id="Vector" d="M11.5999 1.5C9.47899 1.5029 7.44579 2.37303 5.94611 3.91957C4.44642 5.46612 3.60267 7.56285 3.59985 9.74999C3.59985 15.6728 11.0532 23.0909 11.3699 23.4037C11.4314 23.4655 11.514 23.5 11.5999 23.5C11.6857 23.5 11.7683 23.4655 11.8299 23.4037C12.1465 23.0909 19.5999 15.6728 19.5999 9.74999C19.597 7.56285 18.7533 5.46612 17.2536 3.91957C15.7539 2.37303 13.7207 1.5029 11.5999 1.5ZM11.5999 13.5312C10.8747 13.5312 10.1657 13.3095 9.56276 12.894C8.95978 12.4785 8.48982 11.8879 8.2123 11.197C7.93477 10.5061 7.86216 9.7458 8.00364 9.01231C8.14512 8.27882 8.49434 7.60506 9.00713 7.07625C9.51992 6.54743 10.1733 6.1873 10.8845 6.0414C11.5958 5.8955 12.333 5.97038 13.003 6.25658C13.673 6.54277 14.2457 7.02742 14.6486 7.64924C15.0515 8.27107 15.2665 9.00213 15.2665 9.74999C15.2659 10.7527 14.8794 11.7141 14.1919 12.4231C13.5044 13.1321 12.5721 13.5306 11.5999 13.5312Z" fill="url(#paint0_linear_76_479)"/>
</g>
</g>
<defs>
<linearGradient id="paint0_linear_76_479" x1="3.59985" y1="2.87502" x2="19.8487" y2="3.08234" gradientUnits="userSpaceOnUse">
<stop stop-color="#F68C1F"/>
<stop offset="1" stop-color="#C46300"/>
</linearGradient>
</defs>
</svg>
