<svg width="25" height="25" viewBox="0 0 25 25" fill="none" xmlns="http://www.w3.org/2000/svg">
<g id="email (1)" clip-path="url(#clip0_76_463)">
<g id="Vector">
<path d="M14.6056 15.2043C14.0085 15.6024 13.3149 15.8128 12.5999 15.8128C11.8848 15.8128 11.1913 15.6024 10.5942 15.2043L0.75965 8.64778C0.705088 8.6114 0.651932 8.57348 0.599854 8.53448V19.2781C0.599854 20.5099 1.59946 21.4874 2.80921 21.4874H22.3904C23.6222 21.4874 24.5998 20.4878 24.5998 19.2781V8.53443C24.5476 8.57353 24.4944 8.61155 24.4397 8.64797L14.6056 15.2043Z" fill="url(#paint0_linear_76_463)"/>
<path d="M1.5397 7.47794L11.3742 14.0345C11.7465 14.2827 12.1732 14.4068 12.5998 14.4068C13.0265 14.4068 13.4532 14.2827 13.8255 14.0345L23.66 7.47794C24.2485 7.08584 24.5999 6.42959 24.5999 5.7213C24.5999 4.50345 23.6091 3.5127 22.3912 3.5127H2.80846C1.59065 3.51274 0.599854 4.50349 0.599854 5.72248C0.599854 6.42959 0.951228 7.08584 1.5397 7.47794Z" fill="url(#paint1_linear_76_463)"/>
</g>
</g>
<defs>
<linearGradient id="paint0_linear_76_463" x1="0.599853" y1="4.63613" x2="24.9637" y2="5.20684" gradientUnits="userSpaceOnUse">
<stop stop-color="#F68C1F"/>
<stop offset="1" stop-color="#C46300"/>
</linearGradient>
<linearGradient id="paint1_linear_76_463" x1="0.599853" y1="4.63613" x2="24.9637" y2="5.20684" gradientUnits="userSpaceOnUse">
<stop stop-color="#F68C1F"/>
<stop offset="1" stop-color="#C46300"/>
</linearGradient>
<clipPath id="clip0_76_463">
<rect width="24" height="24" fill="white" transform="translate(0.599854 0.5)"/>
</clipPath>
</defs>
</svg>
