<svg width="30" height="29" viewBox="0 0 30 29" fill="none" xmlns="http://www.w3.org/2000/svg">
<mask id="mask0_291_591" style="mask-type:alpha" maskUnits="userSpaceOnUse" x="0" y="0" width="30" height="29">
<rect x="0.5" width="29" height="29" fill="#D9D9D9"/>
</mask>
<g mask="url(#mask0_291_591)">
<path d="M15.0001 26.5833C13.3487 26.5833 11.7879 26.2661 10.3178 25.6317C8.84765 24.9974 7.5638 24.1314 6.46623 23.0338C5.36866 21.9362 4.50269 20.6524 3.86831 19.1822C3.23394 17.7121 2.91675 16.1513 2.91675 14.5C2.91675 12.8284 3.23394 11.2626 3.86831 9.80256C4.50269 8.34249 5.36866 7.06367 6.46623 5.9661C7.5638 4.86854 8.84765 4.00256 10.3178 3.36819C11.7879 2.73381 13.3487 2.41663 15.0001 2.41663C16.6716 2.41663 18.2374 2.73381 19.6975 3.36819C21.1575 4.00256 22.4364 4.86854 23.5339 5.9661C24.6315 7.06367 25.4975 8.34249 26.1318 9.80256C26.7662 11.2626 27.0834 12.8284 27.0834 14.5V16.252C27.0834 17.4402 26.6756 18.4522 25.86 19.288C25.0444 20.1237 24.0424 20.5416 22.8542 20.5416C22.1292 20.5416 21.4546 20.3805 20.8303 20.0583C20.206 19.7361 19.6924 19.3132 19.2897 18.7895C18.7459 19.3333 18.1065 19.7612 17.3714 20.0734C16.6364 20.3855 15.8459 20.5416 15.0001 20.5416C13.3286 20.5416 11.9037 19.9526 10.7256 18.7744C9.54748 17.5963 8.95841 16.1715 8.95841 14.5C8.95841 12.8284 9.54748 11.4036 10.7256 10.2255C11.9037 9.04735 13.3286 8.45829 15.0001 8.45829C16.6716 8.45829 18.0964 9.04735 19.2746 10.2255C20.4527 11.4036 21.0417 12.8284 21.0417 14.5V16.252C21.0417 16.8361 21.223 17.2942 21.5855 17.6265C21.948 17.9588 22.3709 18.125 22.8542 18.125C23.3376 18.125 23.7605 17.9588 24.123 17.6265C24.4855 17.2942 24.6667 16.8361 24.6667 16.252V14.5C24.6667 11.8618 23.7152 9.5911 21.8121 7.68798C19.9089 5.78486 17.6383 4.83329 15.0001 4.83329C12.3619 4.83329 10.0912 5.78486 8.1881 7.68798C6.28498 9.5911 5.33341 11.8618 5.33341 14.5C5.33341 17.1382 6.28498 19.4088 8.1881 21.3119C10.0912 23.2151 12.3619 24.1666 15.0001 24.1666H21.0417V26.5833H15.0001ZM15.0001 18.125C16.007 18.125 16.8629 17.7725 17.5678 17.0677C18.2726 16.3628 18.6251 15.5069 18.6251 14.5C18.6251 13.493 18.2726 12.6371 17.5678 11.9323C16.8629 11.2274 16.007 10.875 15.0001 10.875C13.9931 10.875 13.1372 11.2274 12.4324 11.9323C11.7275 12.6371 11.3751 13.493 11.3751 14.5C11.3751 15.5069 11.7275 16.3628 12.4324 17.0677C13.1372 17.7725 13.9931 18.125 15.0001 18.125Z" fill="url(#paint0_linear_291_591)"/>
</g>
<defs>
<linearGradient id="paint0_linear_291_591" x1="2.91675" y1="3.92706" x2="27.4557" y2="4.35757" gradientUnits="userSpaceOnUse">
<stop stop-color="#F68C1F"/>
<stop offset="1" stop-color="#C46300"/>
</linearGradient>
</defs>
</svg>
