<svg xmlns="http://www.w3.org/2000/svg" width="25" height="25" fill="none" viewBox="0 0 25 25"><g id="whatsapp" clip-path="url(#clip0_76_473)"><g id="Group"><g id="Group_2"><path id="Vector" fill="url(#paint0_linear_76_473)" d="M12.1029 0.172852H12.0969C5.48035 0.172852 0.0998535 5.55485 0.0998535 12.1729C0.0998535 14.7979 0.945854 17.2309 2.38435 19.2064L0.888854 23.6644L5.50135 22.1899C7.39885 23.4469 9.66235 24.1729 12.1029 24.1729C18.7194 24.1729 24.0999 18.7894 24.0999 12.1729C24.0999 5.55635 18.7194 0.172852 12.1029 0.172852ZM19.0854 17.1184C18.7959 17.9359 17.6469 18.6139 16.7304 18.8119C16.1034 18.9454 15.2844 19.0519 12.5274 17.9089C9.00085 16.4479 6.72985 12.8644 6.55285 12.6319C6.38335 12.3994 5.12785 10.7344 5.12785 9.01235C5.12785 7.29035 6.00235 6.45185 6.35485 6.09185C6.64435 5.79635 7.12285 5.66135 7.58185 5.66135C7.73035 5.66135 7.86385 5.66885 7.98385 5.67485C8.33635 5.68985 8.51335 5.71085 8.74585 6.26735C9.03535 6.96485 9.74035 8.68685 9.82435 8.86385C9.90985 9.04085 9.99535 9.28085 9.87535 9.51335C9.76285 9.75335 9.66385 9.85985 9.48685 10.0639C9.30985 10.2679 9.14185 10.4239 8.96485 10.6429C8.80285 10.8334 8.61985 11.0374 8.82385 11.3899C9.02785 11.7349 9.73285 12.8854 10.7709 13.8094C12.1104 15.0019 13.1964 15.3829 13.5849 15.5449C13.8744 15.6649 14.2194 15.6364 14.4309 15.4114C14.6994 15.1219 15.0309 14.6419 15.3684 14.1694C15.6084 13.8304 15.9114 13.7884 16.2294 13.9084C16.5534 14.0209 18.2679 14.8684 18.6204 15.0439C18.9729 15.2209 19.2054 15.3049 19.2909 15.4534C19.3749 15.6019 19.3749 16.2994 19.0854 17.1184Z"/></g></g></g><defs><linearGradient id="paint0_linear_76_473" x1=".1" x2="24.47" y1="1.673" y2="2.1" gradientUnits="userSpaceOnUse"><stop stop-color="#F68C1F"/><stop offset="1" stop-color="#C46300"/></linearGradient><clipPath id="clip0_76_473"><rect width="24" height="24" fill="#fff" transform="translate(0.0998535 0.172852)"/></clipPath></defs></svg>