<svg width="34" height="34" viewBox="0 0 34 34" fill="none" xmlns="http://www.w3.org/2000/svg">
<g id="Twitter - Negative" clip-path="url(#clip0_76_491)">
<path id="Vector" d="M10.9813 30.2031C23.4311 30.2031 30.2425 19.8861 30.2425 10.942C30.2425 10.6519 30.236 10.3554 30.2232 10.0654C31.5482 9.10716 32.6917 7.92026 33.5999 6.56044C32.3658 7.10948 31.0556 7.46806 29.714 7.62392C31.1266 6.77715 32.1843 5.44693 32.6911 3.87983C31.3621 4.66742 29.9088 5.223 28.3933 5.52275C27.3723 4.4378 26.0222 3.71944 24.5519 3.47873C23.0816 3.23801 21.573 3.48835 20.2592 4.19104C18.9455 4.89373 17.8998 6.00963 17.2839 7.36621C16.668 8.72279 16.5161 10.2445 16.8517 11.6961C14.1608 11.561 11.5283 10.862 9.12483 9.64429C6.72139 8.42658 4.60068 6.71738 2.90019 4.62749C2.0359 6.11762 1.77143 7.88092 2.16052 9.55903C2.54961 11.2371 3.56306 12.7041 4.99491 13.6619C3.91997 13.6278 2.86857 13.3383 1.92759 12.8175V12.9013C1.92662 14.4651 2.46724 15.981 3.45753 17.1912C4.44782 18.4015 5.82667 19.2314 7.3597 19.54C6.36393 19.8125 5.31883 19.8522 4.30526 19.656C4.73785 21.0009 5.57952 22.1771 6.71279 23.0206C7.84606 23.8641 9.21439 24.3327 10.6268 24.3611C8.22894 26.2447 5.26684 27.2663 2.21763 27.2615C1.67687 27.2607 1.13665 27.2275 0.599854 27.1622C3.69753 29.1496 7.30096 30.2051 10.9813 30.2031Z" fill="url(#paint0_linear_76_491)"/>
</g>
<defs>
<linearGradient id="paint0_linear_76_491" x1="0.599853" y1="5.06551" x2="34.1029" y2="5.78889" gradientUnits="userSpaceOnUse">
<stop stop-color="#F68C1F"/>
<stop offset="1" stop-color="#C46300"/>
</linearGradient>
<clipPath id="clip0_76_491">
<rect width="33" height="33" fill="white" transform="translate(0.599854 0.296875)"/>
</clipPath>
</defs>
</svg>
