<svg xmlns="http://www.w3.org/2000/svg" width="25" height="25" fill="none" viewBox="0 0 25 25"><g id="vuesax/linear/global"><g id="global"><path id="Vector" stroke="url(#paint0_linear_196_280)" stroke-linecap="round" stroke-linejoin="round" stroke-width="1.5" d="M12.2998 22.3438C17.8227 22.3438 22.2998 17.8666 22.2998 12.3438C22.2998 6.8209 17.8227 2.34375 12.2998 2.34375C6.77696 2.34375 2.2998 6.8209 2.2998 12.3438C2.2998 17.8666 6.77696 22.3438 12.2998 22.3438Z"/><path id="Vector_2" stroke="url(#paint1_linear_196_280)" stroke-linecap="round" stroke-linejoin="round" stroke-width="1.5" d="M8.29978 3.34375H9.29978C7.34978 9.18375 7.34978 15.5037 9.29978 21.3438H8.29978"/><path id="Vector_3" stroke="url(#paint2_linear_196_280)" stroke-linecap="round" stroke-linejoin="round" stroke-width="1.5" d="M15.2998 3.34375C17.2498 9.18375 17.2498 15.5037 15.2998 21.3438"/><path id="Vector_4" stroke="url(#paint3_linear_196_280)" stroke-linecap="round" stroke-linejoin="round" stroke-width="1.5" d="M3.2998 16.3438V15.3438C9.1398 17.2938 15.4598 17.2938 21.2998 15.3438V16.3438"/><path id="Vector_5" stroke="url(#paint4_linear_196_280)" stroke-linecap="round" stroke-linejoin="round" stroke-width="1.5" d="M3.2998 9.34373C9.1398 7.39373 15.4598 7.39373 21.2998 9.34373"/></g></g><defs><linearGradient id="paint0_linear_196_280" x1="2.818" x2="25.14" y1="2.344" y2="19.038" gradientUnits="userSpaceOnUse"><stop/><stop offset="1" stop-color="#1E1E1E"/></linearGradient><linearGradient id="paint1_linear_196_280" x1="7.875" x2="10.411" y1="3.344" y2="3.498" gradientUnits="userSpaceOnUse"><stop/><stop offset="1" stop-color="#1E1E1E"/></linearGradient><linearGradient id="paint2_linear_196_280" x1="15.338" x2="17.874" y1="3.344" y2="3.498" gradientUnits="userSpaceOnUse"><stop/><stop offset="1" stop-color="#1E1E1E"/></linearGradient><linearGradient id="paint3_linear_196_280" x1="3.767" x2="4.132" y1="15.344" y2="18.707" gradientUnits="userSpaceOnUse"><stop/><stop offset="1" stop-color="#1E1E1E"/></linearGradient><linearGradient id="paint4_linear_196_280" x1="3.767" x2="4.132" y1="7.881" y2="11.245" gradientUnits="userSpaceOnUse"><stop/><stop offset="1" stop-color="#1E1E1E"/></linearGradient></defs></svg>