<svg width="26" height="26" viewBox="0 0 26 26" fill="none" xmlns="http://www.w3.org/2000/svg">
<path fill-rule="evenodd" clip-rule="evenodd" d="M22.8794 11.0496H13.1294V14.9496H18.8494C18.3294 17.6796 15.8594 19.4996 13.1294 19.3696C9.74938 19.2396 7.14937 16.6396 7.01937 13.2596C6.88937 9.74961 9.61938 6.75961 13.1294 6.62961C14.5594 6.62961 15.9894 7.14961 17.1594 8.18961L20.1494 5.32961C18.3294 3.50961 15.7294 2.59961 13.2594 2.59961C7.53937 2.59961 2.85938 7.27961 2.85938 12.9996C2.85938 18.7196 7.53937 23.3996 13.2594 23.3996C19.2394 23.3996 23.2694 19.2396 23.2694 13.2596C23.1394 12.4796 23.1394 11.8296 22.8794 11.0496Z" fill="#000"/>
</svg>
