<svg width="30" height="30" viewBox="0 0 30 30" fill="none" xmlns="http://www.w3.org/2000/svg">
<path d="M18.9248 15C18.9248 15.717 18.7122 16.4178 18.3139 17.0139C17.9156 17.6101 17.3494 18.0747 16.687 18.3491C16.0246 18.6234 15.2958 18.6952 14.5926 18.5553C13.8894 18.4155 13.2435 18.0702 12.7365 17.5633C12.2296 17.0563 11.8843 16.4104 11.7445 15.7072C11.6046 15.004 11.6764 14.2752 11.9507 13.6128C12.2251 12.9504 12.6897 12.3842 13.2859 11.9859C13.882 11.5876 14.5828 11.375 15.2998 11.375C16.2603 11.378 17.1806 11.7609 17.8598 12.44C18.5389 13.1192 18.9218 14.0395 18.9248 15ZM26.6279 10.0156V19.9844C26.6279 21.6668 25.9596 23.2804 24.7699 24.4701C23.5802 25.6598 21.9666 26.3281 20.2842 26.3281H10.3154C8.63296 26.3281 7.0194 25.6598 5.82972 24.4701C4.64004 23.2804 3.97168 21.6668 3.97168 19.9844V10.0156C3.97168 8.33316 4.64004 6.7196 5.82972 5.52992C7.0194 4.34023 8.63296 3.67188 10.3154 3.67188H20.2842C21.9666 3.67188 23.5802 4.34023 24.7699 5.52992C25.9596 6.7196 26.6279 8.33316 26.6279 10.0156ZM20.7373 15C20.7373 13.9246 20.4184 12.8733 19.8209 11.9791C19.2234 11.0849 18.3742 10.388 17.3806 9.97641C16.3871 9.56485 15.2938 9.45717 14.239 9.66698C13.1842 9.87679 12.2154 10.3947 11.4549 11.1551C10.6945 11.9156 10.1766 12.8844 9.96678 13.9392C9.75698 14.994 9.86466 16.0873 10.2762 17.0808C10.6878 18.0744 11.3847 18.9236 12.2789 19.5211C13.1731 20.1186 14.2244 20.4375 15.2998 20.4375C16.7419 20.4375 18.125 19.8646 19.1447 18.8449C20.1644 17.8252 20.7373 16.4421 20.7373 15ZM22.5498 9.10938C22.5498 8.84052 22.4701 8.5777 22.3207 8.35415C22.1713 8.1306 21.959 7.95636 21.7106 7.85348C21.4622 7.75059 21.1889 7.72367 20.9252 7.77612C20.6615 7.82857 20.4193 7.95804 20.2292 8.14815C20.0391 8.33826 19.9096 8.58048 19.8572 8.84417C19.8047 9.10787 19.8316 9.38119 19.9345 9.62959C20.0374 9.87798 20.2117 10.0903 20.4352 10.2397C20.6588 10.389 20.9216 10.4688 21.1904 10.4688C21.551 10.4688 21.8967 10.3255 22.1517 10.0706C22.4066 9.81567 22.5498 9.4699 22.5498 9.10938Z" fill="url(#paint0_linear_2_2117)"/>
<defs>
<linearGradient id="paint0_linear_2_2117" x1="4.55926" y1="3.67187" x2="29.8455" y2="22.5831" gradientUnits="userSpaceOnUse">
<stop/>
<stop offset="1" stop-color="#1E1E1E"/>
</linearGradient>
</defs>
</svg>
