<svg width="30" height="30" viewBox="0 0 30 30" fill="none" xmlns="http://www.w3.org/2000/svg">
<g id="ri:linkedin-fill">
<path id="Vector" d="M8.43563 6.54165C8.43531 7.18259 8.18039 7.79716 7.72695 8.25014C7.27351 8.70313 6.65869 8.95743 6.01775 8.95711C5.37681 8.95679 4.76225 8.70187 4.30927 8.24843C3.85628 7.79499 3.60197 7.18018 3.6023 6.53924C3.60262 5.8983 3.85754 5.28374 4.31097 4.83075C4.76441 4.37776 5.37923 4.12346 6.02017 4.12378C6.66111 4.1241 7.27567 4.37902 7.72866 4.83246C8.18164 5.2859 8.43595 5.90071 8.43563 6.54165ZM8.50813 10.7467H3.6748V25.875H8.50813V10.7467ZM16.1448 10.7467H11.3356V25.875H16.0965V17.9362C16.0965 13.5137 21.8602 13.1029 21.8602 17.9362V25.875H26.6331V16.2929C26.6331 8.83749 18.1023 9.1154 16.0965 12.7767L16.1448 10.7467Z" fill="url(#paint0_linear_2_2120)"/>
</g>
<defs>
<linearGradient id="paint0_linear_2_2120" x1="4.19959" y1="4.12378" x2="28.8337" y2="23.6311" gradientUnits="userSpaceOnUse">
<stop/>
<stop offset="1" stop-color="#1E1E1E"/>
</linearGradient>
</defs>
</svg>
