<svg width="17" height="17" viewBox="0 0 17 17" fill="none" xmlns="http://www.w3.org/2000/svg">
<g clip-path="url(#clip0_2_2102)">
<path d="M0.585904 8.71452C0.585526 10.0793 0.942119 11.4118 1.62017 12.5864L0.521057 16.5994L4.62792 15.5226C5.76382 16.141 7.03652 16.465 8.32983 16.4651H8.33323C12.6027 16.4651 16.0782 12.9909 16.08 8.72062C16.0808 6.65139 15.2757 4.70562 13.813 3.24172C12.3504 1.77796 10.4054 0.971403 8.33292 0.970459C4.06294 0.970459 0.587729 4.44447 0.585967 8.71452" fill="url(#paint0_linear_2_2102)"/>
<path d="M0.308576 8.71238C0.308135 10.1262 0.677508 11.5064 1.37974 12.723L0.241211 16.88L4.49533 15.7645C5.66748 16.4036 6.9872 16.7406 8.33009 16.7411H8.33355C12.7562 16.7411 16.3565 13.1419 16.3584 8.7188C16.3592 6.57521 15.5251 4.5595 14.0101 3.04316C12.4949 1.52701 10.4802 0.691433 8.33355 0.690552C3.91014 0.690552 0.310339 4.28922 0.308576 8.71238ZM2.842 12.5135L2.68315 12.2614C2.01542 11.1997 1.66299 9.97273 1.66349 8.71288C1.66494 5.03646 4.65694 2.0454 8.33607 2.0454C10.1178 2.04616 11.7922 2.74071 13.0516 4.00087C14.3109 5.26116 15.0039 6.93647 15.0035 8.7183C15.0018 12.3947 12.0098 15.3862 8.33355 15.3862H8.33091C7.13389 15.3855 5.95992 15.0641 4.9361 14.4566L4.69245 14.3121L2.16797 14.974L2.842 12.5135V12.5135Z" fill="url(#paint1_linear_2_2102)"/>
<path d="M6.32737 5.35869C6.17715 5.02483 6.01907 5.01809 5.87622 5.01223C5.75924 5.0072 5.62552 5.00757 5.49192 5.00757C5.3582 5.00757 5.14093 5.05788 4.95729 5.2584C4.77345 5.45911 4.25543 5.94413 4.25543 6.93062C4.25543 7.91717 4.97397 8.87054 5.07414 9.00445C5.17443 9.13811 6.46128 11.2273 8.49935 12.031C10.1932 12.6989 10.5379 12.5661 10.9055 12.5326C11.2731 12.4992 12.0918 12.0477 12.2589 11.5795C12.426 11.1113 12.426 10.71 12.3759 10.6262C12.3258 10.5426 12.1921 10.4925 11.9916 10.3922C11.791 10.2919 10.8052 9.80685 10.6214 9.73992C10.4376 9.67306 10.3039 9.63969 10.1702 9.84047C10.0365 10.0409 9.65249 10.4925 9.53545 10.6262C9.41854 10.7602 9.3015 10.7769 9.10104 10.6766C8.90039 10.576 8.25464 10.3645 7.4885 9.6815C6.89242 9.15001 6.48999 8.49367 6.37302 8.2929C6.25604 8.09244 6.36049 7.98378 6.46103 7.88386C6.55112 7.79402 6.66161 7.64972 6.76197 7.53269C6.86195 7.41558 6.89531 7.33204 6.96218 7.19832C7.0291 7.06447 6.99561 6.94737 6.94555 6.84707C6.89531 6.74678 6.50567 5.75514 6.32737 5.35869Z" fill="white"/>
</g>
<defs>
<linearGradient id="paint0_linear_2_2102" x1="778.468" y1="1563.87" x2="778.468" y2="0.970459" gradientUnits="userSpaceOnUse">
<stop stop-color="#1FAF38"/>
<stop offset="1" stop-color="#60D669"/>
</linearGradient>
<linearGradient id="paint1_linear_2_2102" x1="806.101" y1="1619.63" x2="806.101" y2="0.690552" gradientUnits="userSpaceOnUse">
<stop stop-color="#F9F9F9"/>
<stop offset="1" stop-color="white"/>
</linearGradient>
<clipPath id="clip0_2_2102">
<rect width="16.1172" height="16.2431" fill="white" transform="translate(0.241211 0.690674)"/>
</clipPath>
</defs>
</svg>
