<svg xmlns="http://www.w3.org/2000/svg" width="30" height="30" fill="none" viewBox="0 0 30 30"><g id="ic:baseline-whatsapp"><path id="Vector" fill="url(#paint0_linear_199_456)" d="M23.7682 6.11495C22.6604 4.99595 21.3409 4.10872 19.8866 3.50502C18.4323 2.90131 16.8724 2.59322 15.2978 2.5987C8.70031 2.5987 3.32323 7.97579 3.32323 14.5733C3.32323 16.6879 3.87906 18.742 4.91823 20.5545L3.22656 26.7654L9.57031 25.0979C11.3224 26.0525 13.292 26.56 15.2978 26.56C21.8953 26.56 27.2724 21.1829 27.2724 14.5854C27.2724 11.3833 26.0278 8.37454 23.7682 6.11495ZM15.2978 24.53C13.5095 24.53 11.7574 24.0466 10.2228 23.1404L9.86031 22.9229L6.09031 23.9137L7.09323 20.2404L6.85156 19.8658C5.85801 18.2792 5.33044 16.4453 5.32906 14.5733C5.32906 9.08745 9.7999 4.61662 15.2857 4.61662C17.9441 4.61662 20.4453 5.65579 22.3182 7.54079C23.2456 8.46391 23.9805 9.56192 24.4804 10.7712C24.9803 11.9804 25.2352 13.2769 25.2303 14.5854C25.2545 20.0712 20.7836 24.53 15.2978 24.53ZM20.7595 17.0866C20.4574 16.9416 18.9832 16.2166 18.7174 16.1079C18.4395 16.0112 18.2461 15.9629 18.0407 16.2529C17.8353 16.555 17.2674 17.2316 17.0982 17.425C16.9291 17.6304 16.7478 17.6545 16.4457 17.4975C16.1436 17.3525 15.177 17.0262 14.0411 16.0112C13.147 15.2137 12.5549 14.235 12.3736 13.9329C12.2045 13.6308 12.3495 13.4737 12.5066 13.3166C12.6395 13.1837 12.8086 12.9662 12.9536 12.797C13.0986 12.6279 13.1591 12.495 13.2557 12.3016C13.3524 12.0962 13.3041 11.927 13.2316 11.782C13.1591 11.637 12.5549 10.1629 12.3132 9.55871C12.0716 8.97871 11.8178 9.05121 11.6366 9.03912H11.0566C10.8511 9.03912 10.537 9.11162 10.2591 9.4137C9.99323 9.71579 9.2199 10.4408 9.2199 11.915C9.2199 13.3891 10.2953 14.815 10.4403 15.0083C10.5853 15.2137 12.5549 18.2345 15.5516 19.5275C16.2645 19.8416 16.8203 20.0229 17.2553 20.1558C17.9682 20.3854 18.6207 20.3491 19.1403 20.2766C19.7203 20.192 20.9166 19.5516 21.1582 18.8508C21.412 18.15 21.412 17.5579 21.3274 17.425C21.2428 17.292 21.0616 17.2316 20.7595 17.0866Z"/></g><defs><linearGradient id="paint0_linear_199_456" x1="3.85" x2="30.784" y1="2.599" y2="22.641" gradientUnits="userSpaceOnUse"><stop/><stop offset="1" stop-color="#1E1E1E"/></linearGradient></defs></svg>