<svg width="33" height="33" viewBox="0 0 33 33" fill="none" xmlns="http://www.w3.org/2000/svg">
<path d="M13.6332 20.5L20.5532 16.5L13.6332 12.5V20.5ZM29.0465 10.06C29.2198 10.6866 29.3398 11.5266 29.4198 12.5933C29.5132 13.66 29.5532 14.58 29.5532 15.38L29.6332 16.5C29.6332 19.42 29.4198 21.5666 29.0465 22.94C28.7132 24.14 27.9398 24.9133 26.7398 25.2466C26.1132 25.42 24.9665 25.54 23.2065 25.62C21.4732 25.7133 19.8865 25.7533 18.4198 25.7533L16.2998 25.8333C10.7132 25.8333 7.23316 25.62 5.85982 25.2466C4.65983 24.9133 3.88649 24.14 3.55316 22.94C3.37983 22.3133 3.25983 21.4733 3.17983 20.4066C3.08649 19.34 3.04649 18.42 3.04649 17.62L2.96649 16.5C2.96649 13.58 3.17983 11.4333 3.55316 10.06C3.88649 8.85996 4.65983 8.08663 5.85982 7.75329C6.48649 7.57996 7.63316 7.45996 9.39316 7.37996C11.1265 7.28663 12.7132 7.24663 14.1798 7.24663L16.2998 7.16663C21.8865 7.16663 25.3665 7.37996 26.7398 7.75329C27.9398 8.08663 28.7132 8.85996 29.0465 10.06Z" fill="black"/>
</svg>
