<svg xmlns="http://www.w3.org/2000/svg" width="25" height="24" fill="none" viewBox="0 0 25 24"><path fill="url(#paint0_linear_2_2713)" fill-rule="evenodd" d="M12.7216 0H12.7276C19.3441 0 24.7246 5.3835 24.7246 12C24.7246 18.6165 19.3441 24 12.7276 24C10.2871 24 8.02361 23.274 6.12611 22.017L1.51361 23.4915L3.00911 19.0335C1.57061 17.058 0.724609 14.625 0.724609 12C0.724609 5.382 6.10511 0 12.7216 0ZM8.79652 16.9976C8.89252 17.0936 9.04718 17.1416 9.26052 17.1416H13.9325C14.7325 17.1416 15.4045 17.0029 15.9485 16.7256C16.4925 16.4482 16.8979 16.0749 17.1645 15.6056C17.4419 15.1256 17.5805 14.5869 17.5805 13.9896C17.5805 12.6989 16.9885 11.8669 15.8045 11.4936C16.2632 11.3016 16.6205 11.0029 16.8765 10.5976C17.1325 10.1922 17.2605 9.73356 17.2605 9.22156C17.2605 8.3149 16.9725 7.5949 16.3965 7.06156C15.8312 6.52823 14.9939 6.26156 13.8845 6.26156H9.26052C9.04718 6.26156 8.89252 6.30956 8.79652 6.40556C8.71118 6.50156 8.66852 6.6509 8.66852 6.85356V16.5656C8.66852 16.7576 8.71118 16.9016 8.79652 16.9976ZM14.7965 10.4056C14.5192 10.6722 14.1192 10.8056 13.5965 10.8056H10.7165V7.81356H13.5805C14.1565 7.81356 14.5725 7.9309 14.8285 8.16556C15.0952 8.38956 15.2285 8.7629 15.2285 9.28556C15.2285 9.76556 15.0845 10.1389 14.7965 10.4056ZM15.1325 15.1416C14.8552 15.4402 14.4232 15.5896 13.8365 15.5896H10.7165V12.2776H13.6445C14.2419 12.2776 14.7059 12.4216 15.0365 12.7096C15.3779 12.9869 15.5485 13.4029 15.5485 13.9576C15.5485 14.4376 15.4099 14.8322 15.1325 15.1416Z" clip-rule="evenodd"/><defs><linearGradient id="paint0_linear_2_2713" x1=".725" x2="25.094" y1="1.5" y2="1.928" gradientUnits="userSpaceOnUse"><stop stop-color="#F68C1F"/><stop offset="1" stop-color="#C46300"/></linearGradient></defs></svg>