<svg width="24" height="24" viewBox="0 0 24 24" fill="none" xmlns="http://www.w3.org/2000/svg">
<g id="email (1)">
<g id="Vector">
<path d="M14.0057 14.7043C13.4086 15.1024 12.7151 15.3128 12 15.3128C11.285 15.3128 10.5914 15.1024 9.99431 14.7043L0.159797 8.14778C0.105234 8.1114 0.0520781 8.07348 0 8.03448V18.7781C0 20.0099 0.999609 20.9874 2.20936 20.9874H21.7906C23.0224 20.9874 24 19.9878 24 18.7781V8.03443C23.9478 8.07353 23.8945 8.11155 23.8398 8.14797L14.0057 14.7043Z" fill="url(#paint0_linear_2_2709)"/>
<path d="M0.939844 6.97794L10.7744 13.5345C11.1466 13.7827 11.5733 13.9068 12 13.9068C12.4267 13.9068 12.8534 13.7827 13.2256 13.5345L23.0602 6.97794C23.6487 6.58584 24 5.92959 24 5.2213C24 4.00345 23.0092 3.0127 21.7914 3.0127H2.20861C0.990797 3.01274 0 4.00349 0 5.22248C0 5.92959 0.351375 6.58584 0.939844 6.97794Z" fill="url(#paint1_linear_2_2709)"/>
</g>
</g>
<defs>
<linearGradient id="paint0_linear_2_2709" x1="-3.6275e-07" y1="4.13613" x2="24.3638" y2="4.70684" gradientUnits="userSpaceOnUse">
<stop stop-color="#F68C1F"/>
<stop offset="1" stop-color="#C46300"/>
</linearGradient>
<linearGradient id="paint1_linear_2_2709" x1="-3.6275e-07" y1="4.13613" x2="24.3638" y2="4.70684" gradientUnits="userSpaceOnUse">
<stop stop-color="#F68C1F"/>
<stop offset="1" stop-color="#C46300"/>
</linearGradient>
</defs>
</svg>
