<svg xmlns="http://www.w3.org/2000/svg" width="21" height="20" fill="none" viewBox="0 0 21 20"><mask id="mask0_2907_952" style="mask-type:alpha" width="21" height="20" x="0" y="0" maskUnits="userSpaceOnUse"><rect width="20" height="20" x=".3" fill="#D9D9D9"/></mask><g mask="url(#mask0_2907_952)"><path fill="#fff" d="M10.2998 13.3333C11.3415 13.3333 12.2269 12.9687 12.9561 12.2396C13.6852 11.5104 14.0498 10.625 14.0498 9.58333C14.0498 8.54166 13.6852 7.65624 12.9561 6.92708C12.2269 6.19791 11.3415 5.83333 10.2998 5.83333C9.25815 5.83333 8.37273 6.19791 7.64357 6.92708C6.9144 7.65624 6.54982 8.54166 6.54982 9.58333C6.54982 10.625 6.9144 11.5104 7.64357 12.2396C8.37273 12.9687 9.25815 13.3333 10.2998 13.3333ZM10.2998 11.8333C9.67482 11.8333 9.14357 11.6146 8.70607 11.1771C8.26857 10.7396 8.04982 10.2083 8.04982 9.58333C8.04982 8.95833 8.26857 8.42708 8.70607 7.98958C9.14357 7.55208 9.67482 7.33333 10.2998 7.33333C10.9248 7.33333 11.4561 7.55208 11.8936 7.98958C12.3311 8.42708 12.5498 8.95833 12.5498 9.58333C12.5498 10.2083 12.3311 10.7396 11.8936 11.1771C11.4561 11.6146 10.9248 11.8333 10.2998 11.8333ZM10.2998 15.8333C8.27204 15.8333 6.42482 15.2674 4.75815 14.1354C3.09148 13.0035 1.88315 11.4861 1.13315 9.58333C1.88315 7.68055 3.09148 6.16319 4.75815 5.03124C6.42482 3.8993 8.27204 3.33333 10.2998 3.33333C12.3276 3.33333 14.1748 3.8993 15.8415 5.03124C17.5081 6.16319 18.7165 7.68055 19.4665 9.58333C18.7165 11.4861 17.5081 13.0035 15.8415 14.1354C14.1748 15.2674 12.3276 15.8333 10.2998 15.8333ZM10.2998 14.1667C11.8693 14.1667 13.3102 13.7535 14.6227 12.9271C15.9352 12.1007 16.9387 10.9861 17.6331 9.58333C16.9387 8.18055 15.9352 7.06597 14.6227 6.23958C13.3102 5.41319 11.8693 4.99999 10.2998 4.99999C8.73037 4.99999 7.2894 5.41319 5.9769 6.23958C4.6644 7.06597 3.66093 8.18055 2.96648 9.58333C3.66093 10.9861 4.6644 12.1007 5.9769 12.9271C7.2894 13.7535 8.73037 14.1667 10.2998 14.1667Z"/></g></svg>