<svg xmlns="http://www.w3.org/2000/svg" width="17" height="17" fill="none" viewBox="0 0 17 17"><g clip-path="url(#clip0_76_510)"><path stroke="#fff" stroke-linecap="round" stroke-linejoin="round" stroke-width="1.5" d="M15.2667 8.49967C15.2667 12.1816 12.2819 15.1663 8.60002 15.1663M15.2667 8.49967C15.2667 4.81778 12.2819 1.83301 8.60002 1.83301M15.2667 8.49967H1.93335M8.60002 15.1663C4.91812 15.1663 1.93335 12.1816 1.93335 8.49967M8.60002 15.1663C10.2675 13.3408 11.2152 10.9717 11.2667 8.49967C11.2152 6.0277 10.2675 3.65858 8.60002 1.83301M8.60002 15.1663C6.9325 13.3408 5.98485 10.9717 5.93335 8.49967C5.98485 6.0277 6.9325 3.65858 8.60002 1.83301M1.93335 8.49967C1.93335 4.81778 4.91812 1.83301 8.60002 1.83301"/></g><defs><clipPath id="clip0_76_510"><rect width="16" height="16" fill="#fff" transform="translate(0.599854 0.5)"/></clipPath></defs></svg>