<svg width="27" height="27" viewBox="0 0 27 27" fill="none" xmlns="http://www.w3.org/2000/svg">
<g id="pdf 1" clip-path="url(#clip0_76_624)">
<g id="Group">
<g id="Vrstva_x0020_1_15_">
<path id="Vector" fill-rule="evenodd" clip-rule="evenodd" d="M7.26224 0.5H15.9549L23.3222 8.17917V23.1152C23.3222 24.9863 21.8085 26.5 19.9439 26.5H7.26224C5.39118 26.5 3.87744 24.9863 3.87744 23.1152V3.8848C3.87741 2.01374 5.39115 0.5 7.26224 0.5Z" fill="#E5252A"/>
<g id="Group_2">
<path id="Vector_2" opacity="0.302" fill-rule="evenodd" clip-rule="evenodd" d="M15.9482 0.5V8.12069H23.3221L15.9482 0.5Z" fill="white"/>
<path id="Vector_3" d="M7.63892 19.8995V15.1504H9.65941C10.1597 15.1504 10.556 15.2868 10.8548 15.5662C11.1537 15.839 11.3031 16.2094 11.3031 16.6706C11.3031 17.1319 11.1537 17.5022 10.8548 17.7751C10.556 18.0544 10.1597 18.1909 9.65941 18.1909H8.85381V19.8995H7.63892ZM8.85381 17.1579H9.52298C9.70488 17.1579 9.84781 17.1189 9.94528 17.028C10.0427 16.9435 10.0947 16.8266 10.0947 16.6707C10.0947 16.5148 10.0427 16.3978 9.94528 16.3133C9.84784 16.2224 9.70491 16.1834 9.52298 16.1834H8.85381V17.1579ZM11.8033 19.8995V15.1504H13.486C13.8173 15.1504 14.1292 15.1959 14.4215 15.2933C14.7139 15.3908 14.9802 15.5272 15.2141 15.7156C15.448 15.8975 15.6364 16.1444 15.7728 16.4562C15.9028 16.7681 15.9742 17.1254 15.9742 17.5282C15.9742 17.9245 15.9028 18.2818 15.7728 18.5937C15.6364 18.9055 15.448 19.1524 15.2141 19.3343C14.9802 19.5227 14.7139 19.6591 14.4215 19.7566C14.1292 19.854 13.8173 19.8995 13.486 19.8995H11.8033ZM12.9922 18.8666H13.3431C13.5315 18.8666 13.7069 18.8471 13.8693 18.8016C14.0252 18.7561 14.1746 18.6846 14.3176 18.5872C14.454 18.4898 14.5644 18.3533 14.6424 18.1714C14.7204 17.9895 14.7594 17.7751 14.7594 17.5282C14.7594 17.2748 14.7204 17.0604 14.6424 16.8785C14.5644 16.6967 14.454 16.5602 14.3176 16.4628C14.1746 16.3653 14.0252 16.2938 13.8693 16.2484C13.7069 16.2029 13.5315 16.1834 13.3431 16.1834H12.9922V18.8666ZM16.5849 19.8995V15.1504H19.9633V16.1834H17.7998V16.9435H19.528V17.97H17.7998V19.8995H16.5849Z" fill="white"/>
</g>
</g>
</g>
</g>
<defs>
<clipPath id="clip0_76_624">
<rect width="26" height="26" fill="white" transform="translate(0.599854 0.5)"/>
</clipPath>
</defs>
</svg>
