<svg width="33" height="33" viewBox="0 0 33 33" fill="none" xmlns="http://www.w3.org/2000/svg">
<g id="Facebook - Negative" clip-path="url(#clip0_237_550)">
<path id="Vector" d="M33 16.5C33 7.3873 25.6127 0 16.5 0C7.3873 0 0 7.3873 0 16.5C0 24.7355 6.03378 31.5617 13.9219 32.7996V21.2695H9.73242V16.5H13.9219V12.8648C13.9219 8.72953 16.3853 6.44531 20.1542 6.44531C21.9589 6.44531 23.8477 6.76758 23.8477 6.76758V10.8281H21.7671C19.7175 10.8281 19.0781 12.1001 19.0781 13.4062V16.5H23.6543L22.9228 21.2695H19.0781V32.7996C26.9662 31.5617 33 24.7355 33 16.5Z" fill="url(#paint0_linear_237_550)"/>
</g>
<defs>
<linearGradient id="paint0_linear_237_550" x1="1.5" y1="5.49998" x2="32.1812" y2="1.63753" gradientUnits="userSpaceOnUse">
<stop stop-color="#32C2EE"/>
<stop offset="1" stop-color="#0082AC"/>
</linearGradient>
<clipPath id="clip0_237_550">
<rect width="33" height="33" fill="white"/>
</clipPath>
</defs>
</svg>
