<svg xmlns="http://www.w3.org/2000/svg" width="33" height="34" fill="none" viewBox="0 0 33 34"><g id="Instagram - Negative" clip-path="url(#clip0_237_561)"><g id="Vector"><path fill="url(#paint0_linear_237_561)" d="M16.5 3.76829C20.9086 3.76829 21.4307 3.78762 23.1645 3.86497C24.7758 3.93586 25.6459 4.20657 26.226 4.43215C26.993 4.72864 27.5473 5.08958 28.1209 5.66321C28.701 6.24329 29.0555 6.79114 29.352 7.55813C29.5775 8.13821 29.8482 9.01477 29.9191 10.6197C29.9965 12.3599 30.0158 12.882 30.0158 17.2841C30.0158 21.6927 29.9965 22.2148 29.9191 23.9486C29.8482 25.5599 29.5775 26.43 29.352 27.0101C29.0555 27.7771 28.6945 28.3314 28.1209 28.905C27.5408 29.4851 26.993 29.8396 26.226 30.1361C25.6459 30.3616 24.7693 30.6323 23.1645 30.7032C21.4242 30.7806 20.9022 30.7999 16.5 30.7999C12.0914 30.7999 11.5693 30.7806 9.83555 30.7032C8.22422 30.6323 7.3541 30.3616 6.77402 30.1361C6.00703 29.8396 5.45273 29.4786 4.8791 28.905C4.29902 28.3249 3.94453 27.7771 3.64805 27.0101C3.42246 26.43 3.15176 25.5534 3.08086 23.9486C3.00352 22.2083 2.98418 21.6863 2.98418 17.2841C2.98418 12.8755 3.00352 12.3534 3.08086 10.6197C3.15176 9.00832 3.42246 8.13821 3.64805 7.55813C3.94453 6.79114 4.30547 6.23684 4.8791 5.66321C5.45918 5.08313 6.00703 4.72864 6.77402 4.43215C7.3541 4.20657 8.23067 3.93586 9.83555 3.86497C11.5693 3.78762 12.0914 3.76829 16.5 3.76829ZM16.5 0.796997C12.0205 0.796997 11.4598 0.816333 9.7002 0.893677C7.94707 0.971021 6.7418 1.25461 5.69766 1.66067C4.6084 2.08606 3.68672 2.6468 2.77148 3.56848C1.8498 4.48372 1.28906 5.4054 0.863672 6.48821C0.457617 7.53879 0.174023 8.73762 0.0966797 10.4907C0.0193359 12.2568 0 12.8175 0 17.297C0 21.7765 0.0193359 22.3372 0.0966797 24.0968C0.174023 25.8499 0.457617 27.0552 0.863672 28.0993C1.28906 29.1886 1.8498 30.1103 2.77148 31.0255C3.68672 31.9407 4.6084 32.5079 5.69121 32.9269C6.7418 33.3329 7.94062 33.6165 9.69375 33.6939C11.4533 33.7712 12.0141 33.7906 16.4936 33.7906C20.973 33.7906 21.5338 33.7712 23.2934 33.6939C25.0465 33.6165 26.2518 33.3329 27.2959 32.9269C28.3787 32.5079 29.3004 31.9407 30.2156 31.0255C31.1309 30.1103 31.698 29.1886 32.117 28.1058C32.523 27.0552 32.8066 25.8564 32.884 24.1032C32.9613 22.3437 32.9807 21.7829 32.9807 17.3034C32.9807 12.824 32.9613 12.2632 32.884 10.5036C32.8066 8.75051 32.523 7.54524 32.117 6.5011C31.7109 5.4054 31.1502 4.48372 30.2285 3.56848C29.3133 2.65325 28.3916 2.08606 27.3088 1.66711C26.2582 1.26106 25.0594 0.977466 23.3062 0.900122C21.5402 0.816333 20.9795 0.796997 16.5 0.796997Z"/><path fill="url(#paint1_linear_237_561)" d="M16.5 8.82141C11.8207 8.82141 8.02441 12.6177 8.02441 17.297C8.02441 21.9763 11.8207 25.7726 16.5 25.7726C21.1793 25.7726 24.9756 21.9763 24.9756 17.297C24.9756 12.6177 21.1793 8.82141 16.5 8.82141ZM16.5 22.7948C13.4643 22.7948 11.0021 20.3327 11.0021 17.297C11.0021 14.2613 13.4643 11.7991 16.5 11.7991C19.5357 11.7991 21.9979 14.2613 21.9979 17.297C21.9979 20.3327 19.5357 22.7948 16.5 22.7948Z"/><path fill="url(#paint2_linear_237_561)" d="M27.2895 8.4862C27.2895 9.5819 26.4 10.4649 25.3107 10.4649C24.215 10.4649 23.332 9.57545 23.332 8.4862C23.332 7.39049 24.2215 6.50748 25.3107 6.50748C26.4 6.50748 27.2895 7.39694 27.2895 8.4862Z"/></g></g><defs><linearGradient id="paint0_linear_237_561" x1="1.499" x2="32.169" y1="6.33" y2="2.493" gradientUnits="userSpaceOnUse"><stop stop-color="#32C2EE"/><stop offset="1" stop-color="#0082AC"/></linearGradient><linearGradient id="paint1_linear_237_561" x1="1.499" x2="32.169" y1="6.33" y2="2.493" gradientUnits="userSpaceOnUse"><stop stop-color="#32C2EE"/><stop offset="1" stop-color="#0082AC"/></linearGradient><linearGradient id="paint2_linear_237_561" x1="1.499" x2="32.169" y1="6.33" y2="2.493" gradientUnits="userSpaceOnUse"><stop stop-color="#32C2EE"/><stop offset="1" stop-color="#0082AC"/></linearGradient><clipPath id="clip0_237_561"><rect width="33" height="33" fill="#fff" transform="translate(0 0.796875)"/></clipPath></defs></svg>