<svg xmlns="http://www.w3.org/2000/svg" width="33" height="34" fill="none" viewBox="0 0 33 34"><g id="LinkedIn - Negative" clip-path="url(#clip0_237_566)"><g id="Group"><path id="Vector" fill="url(#paint0_linear_237_566)" d="M30.5572 0.796875H2.43633C1.08926 0.796875 0 1.86035 0 3.1752V31.4121C0 32.727 1.08926 33.7969 2.43633 33.7969H30.5572C31.9043 33.7969 33 32.727 33 31.4186V3.1752C33 1.86035 31.9043 0.796875 30.5572 0.796875ZM9.79043 28.9178H4.89199V13.1654H9.79043V28.9178ZM7.34121 11.0191C5.76856 11.0191 4.49883 9.74941 4.49883 8.1832C4.49883 6.61699 5.76856 5.34727 7.34121 5.34727C8.90742 5.34727 10.1771 6.61699 10.1771 8.1832C10.1771 9.74297 8.90742 11.0191 7.34121 11.0191ZM28.1209 28.9178H23.2289V21.2607C23.2289 19.4367 23.1967 17.0842 20.683 17.0842C18.1371 17.0842 17.7504 19.0758 17.7504 21.1318V28.9178H12.8648V13.1654H17.557V15.3182H17.6215C18.2725 14.0807 19.8709 12.7723 22.2492 12.7723C27.2057 12.7723 28.1209 16.0336 28.1209 20.2746V28.9178Z"/></g></g><defs><linearGradient id="paint0_linear_237_566" x1="1.5" x2="32.187" y1="6.33" y2="2.491" gradientUnits="userSpaceOnUse"><stop stop-color="#32C2EE"/><stop offset="1" stop-color="#0082AC"/></linearGradient><clipPath id="clip0_237_566"><rect width="33" height="33" fill="#fff" transform="translate(0 0.796875)"/></clipPath></defs></svg>