<svg xmlns="http://www.w3.org/2000/svg" width="25" height="25" fill="none" viewBox="0 0 25 25"><g id="pin (1)"><g id="Pin"><path id="Vector" fill="url(#paint0_linear_237_485)" d="M12 1C9.87913 1.0029 7.84593 1.87303 6.34625 3.41957C4.84657 4.96612 4.00281 7.06285 4 9.24999C4 15.1728 11.4533 22.5909 11.77 22.9037C11.8316 22.9655 11.9141 23 12 23C12.0859 23 12.1684 22.9655 12.23 22.9037C12.5467 22.5909 20 15.1728 20 9.24999C19.9972 7.06285 19.1534 4.96612 17.6537 3.41957C16.1541 1.87303 14.1209 1.0029 12 1ZM12 13.0312C11.2748 13.0312 10.5659 12.8095 9.96291 12.394C9.35993 11.9785 8.88996 11.3879 8.61244 10.697C8.33492 10.0061 8.26231 9.2458 8.40379 8.51231C8.54527 7.77882 8.89448 7.10506 9.40728 6.57625C9.92007 6.04743 10.5734 5.6873 11.2847 5.5414C11.9959 5.3955 12.7332 5.47038 13.4032 5.75658C14.0732 6.04277 14.6458 6.52742 15.0487 7.14924C15.4516 7.77107 15.6667 8.50213 15.6667 9.24999C15.6661 10.2527 15.2796 11.2141 14.5921 11.9231C13.9046 12.6321 12.9723 13.0306 12 13.0312Z"/></g></g><defs><linearGradient id="paint0_linear_237_485" x1="4.727" x2="19.715" y1="4.689" y2="3.325" gradientUnits="userSpaceOnUse"><stop stop-color="#32C2EE"/><stop offset="1" stop-color="#0082AC"/></linearGradient></defs></svg>