<svg width="25" height="25" viewBox="0 0 25 25" fill="none" xmlns="http://www.w3.org/2000/svg">
<g id="whatsapp" clip-path="url(#clip0_237_479)">
<g id="Group">
<g id="Group_2">
<path id="Vector" d="M12.503 0.672852H12.497C5.8805 0.672852 0.5 6.05485 0.5 12.6729C0.5 15.2979 1.346 17.7309 2.7845 19.7064L1.289 24.1644L5.9015 22.6899C7.799 23.9469 10.0625 24.6729 12.503 24.6729C19.1195 24.6729 24.5 19.2894 24.5 12.6729C24.5 6.05635 19.1195 0.672852 12.503 0.672852ZM19.4855 17.6184C19.196 18.4359 18.047 19.1139 17.1305 19.3119C16.5035 19.4454 15.6845 19.5519 12.9275 18.4089C9.401 16.9479 7.13 13.3644 6.953 13.1319C6.7835 12.8994 5.528 11.2344 5.528 9.51235C5.528 7.79035 6.4025 6.95185 6.755 6.59185C7.0445 6.29635 7.523 6.16135 7.982 6.16135C8.1305 6.16135 8.264 6.16885 8.384 6.17485C8.7365 6.18985 8.9135 6.21085 9.146 6.76735C9.4355 7.46485 10.1405 9.18685 10.2245 9.36385C10.31 9.54085 10.3955 9.78085 10.2755 10.0134C10.163 10.2534 10.064 10.3599 9.887 10.5639C9.71 10.7679 9.542 10.9239 9.365 11.1429C9.203 11.3334 9.02 11.5374 9.224 11.8899C9.428 12.2349 10.133 13.3854 11.171 14.3094C12.5105 15.5019 13.5965 15.8829 13.985 16.0449C14.2745 16.1649 14.6195 16.1364 14.831 15.9114C15.0995 15.6219 15.431 15.1419 15.7685 14.6694C16.0085 14.3304 16.3115 14.2884 16.6295 14.4084C16.9535 14.5209 18.668 15.3684 19.0205 15.5439C19.373 15.7209 19.6055 15.8049 19.691 15.9534C19.775 16.1019 19.775 16.7994 19.4855 17.6184Z" fill="url(#paint0_linear_237_479)"/>
</g>
</g>
</g>
<defs>
<linearGradient id="paint0_linear_237_479" x1="1.59091" y1="4.69728" x2="23.9088" y2="1.90476" gradientUnits="userSpaceOnUse">
<stop stop-color="#32C2EE"/>
<stop offset="1" stop-color="#0082AC"/>
</linearGradient>
<clipPath id="clip0_237_479">
<rect width="24" height="24" fill="white" transform="translate(0.5 0.672852)"/>
</clipPath>
</defs>
</svg>
