<svg xmlns="http://www.w3.org/2000/svg" width="25" height="25" fill="none" viewBox="0 0 25 25"><g id="Group 48095398"><path id="Vector" fill="url(#paint0_linear_291_595)" fill-rule="evenodd" d="M20.8064 3.69444C18.5445 1.43052 15.5366 0.183221 12.3314 0.181885C5.72765 0.181885 0.353173 5.55436 0.3505 12.1582C0.347893 14.2599 0.899495 16.325 1.94968 18.1455L0.25 24.3519L6.60128 22.6864C8.35802 23.6429 10.3264 24.144 12.3266 24.1442H12.3315C18.9345 24.1442 24.3096 18.7711 24.3123 12.1673C24.3135 8.96709 23.0685 5.95783 20.8064 3.69431V3.69444ZM12.3315 22.1219H12.3274C10.5441 22.1222 8.79354 21.6429 7.25908 20.7343L6.89543 20.5186L3.12668 21.5075L4.13262 17.8341L3.8962 17.4568C2.89843 15.8701 2.37022 14.0333 2.37266 12.1589C2.37534 6.67029 6.84251 2.20498 12.3354 2.20498C14.9949 2.20605 17.4954 3.24286 19.3755 5.12456C21.2556 7.00627 22.2904 9.50728 22.2889 12.1676C22.2868 17.6567 17.8197 22.1226 12.3311 22.1226L12.3315 22.1219Z" clip-rule="evenodd"/><path id="Vector_2" fill="url(#paint1_linear_291_595)" fill-rule="evenodd" d="M8.31436 17.9599C8.39869 18.0106 8.5719 18.0106 8.96922 18.0102C10.6551 18.0088 12.1113 18.0037 13.1472 18.0037C17.9812 18.0037 17.8541 12.9147 15.5939 12.2797C15.925 11.6933 17.4333 10.5915 16.5004 8.31426C15.5783 6.06249 11.6111 6.57355 8.89799 6.57488C7.89406 6.57488 8.04427 7.31674 8.04935 8.47009C8.05764 10.2969 8.05082 15.2414 8.04935 17.3789C8.04935 17.8122 8.18019 17.8787 8.31436 17.9599ZM10.406 16.0949C10.8624 16.0949 11.939 16.0949 12.862 16.0934C13.9071 16.0918 14.8376 15.6029 14.8144 14.5625C14.7974 13.5825 14.1454 13.2608 13.2403 13.171C12.3783 13.1793 11.3924 13.1793 10.406 13.1793V16.0949ZM10.406 11.211C12.2242 11.186 12.9257 11.2842 13.9184 11.0356C14.6 10.6481 14.8986 9.21248 13.9223 8.72468C13.2441 8.38589 11.24 8.50176 10.406 8.53651V11.211Z" clip-rule="evenodd"/></g><defs><linearGradient id="paint0_linear_291_595" x1=".25" x2="24.683" y1="1.693" y2="2.119" gradientUnits="userSpaceOnUse"><stop stop-color="#32C2EE"/><stop offset="1" stop-color="#32C2EE"/></linearGradient><linearGradient id="paint1_linear_291_595" x1="8.039" x2="17.244" y1="7.242" y2="7.37" gradientUnits="userSpaceOnUse"><stop stop-color="#32C2EE"/><stop offset="1" stop-color="#32C2EE"/></linearGradient></defs></svg>