<svg width="33" height="34" viewBox="0 0 33 34" fill="none" xmlns="http://www.w3.org/2000/svg">
<g id="Twitter - Negative">
<path id="Vector" d="M10.3815 30.7031C22.8312 30.7031 29.6426 20.3861 29.6426 11.442C29.6426 11.1519 29.6362 10.8554 29.6233 10.5654C30.9483 9.60716 32.0918 8.42026 33 7.06044C31.766 7.60948 30.4558 7.96806 29.1141 8.12392C30.5268 7.27715 31.5845 5.94693 32.0912 4.37983C30.7623 5.16742 29.3089 5.723 27.7935 6.02275C26.7724 4.9378 25.4224 4.21944 23.9521 3.97873C22.4818 3.73801 20.9731 3.98835 19.6594 4.69104C18.3456 5.39373 17.3 6.50963 16.684 7.86621C16.0681 9.22279 15.9162 10.7445 16.2519 12.1961C13.5609 12.061 10.9284 11.362 8.52497 10.1443C6.12154 8.92658 4.00083 7.21738 2.30033 5.12749C1.43605 6.61762 1.17158 8.38092 1.56067 10.059C1.94976 11.7371 2.96321 13.2041 4.39506 14.1619C3.32011 14.1278 2.26872 13.8383 1.32773 13.3175V13.4013C1.32677 14.9651 1.86738 16.481 2.85768 17.6912C3.84797 18.9015 5.22682 19.7314 6.75984 20.04C5.76408 20.3125 4.71898 20.3522 3.70541 20.156C4.138 21.5009 4.97966 22.6771 6.11293 23.5206C7.24621 24.3641 8.61454 24.8327 10.027 24.8611C7.62908 26.7447 4.66699 27.7663 1.61777 27.7615C1.07702 27.7607 0.536799 27.7275 0 27.6622C3.09768 29.6496 6.70111 30.7051 10.3815 30.7031Z" fill="url(#paint0_linear_237_555)"/>
</g>
<defs>
<linearGradient id="paint0_linear_237_555" x1="1.5" y1="8.38586" x2="31.9455" y2="3.69742" gradientUnits="userSpaceOnUse">
<stop stop-color="#32C2EE"/>
<stop offset="1" stop-color="#0082AC"/>
</linearGradient>
</defs>
</svg>
