<svg width="20" height="19" viewBox="0 0 20 19" fill="none" xmlns="http://www.w3.org/2000/svg">
<path d="M6.26228 16.3084C7.44978 17.0209 8.87478 17.4167 10.2998 17.4167C14.654 17.4167 18.2165 13.8542 18.2165 9.50004C18.2165 5.14587 14.654 1.58337 10.2998 1.58337C5.94562 1.58337 2.38312 5.14587 2.38312 9.50004C2.38312 10.925 2.77895 12.2709 3.41228 13.4584L2.82356 15.7227C2.62884 16.4716 3.32204 17.1484 4.0661 16.9359L6.26228 16.3084Z" stroke="white" stroke-miterlimit="10" stroke-linecap="round" stroke-linejoin="round"/>
<path d="M13.8623 11.7551C13.8623 11.8833 13.8338 12.0151 13.7731 12.1434C13.7125 12.2716 13.634 12.3927 13.5305 12.5067C13.3557 12.6991 13.163 12.8381 12.9454 12.9271C12.7313 13.0162 12.4994 13.0625 12.2496 13.0625C11.8857 13.0625 11.4968 12.977 11.0865 12.8024C10.6762 12.6279 10.2659 12.3928 9.85917 12.0971C9.44887 11.7978 9.05998 11.4665 8.68892 11.0996C8.32143 10.7291 7.98962 10.3407 7.69349 9.93462C7.40093 9.5285 7.16545 9.12238 6.99419 8.71981C6.82293 8.31369 6.7373 7.92537 6.7373 7.55487C6.7373 7.31262 6.78012 7.08106 6.86575 6.86731C6.95138 6.65 7.08695 6.4505 7.27605 6.27238C7.50439 6.04794 7.75414 5.9375 8.01816 5.9375C8.11806 5.9375 8.21796 5.95888 8.30716 6.00163C8.39992 6.04438 8.48198 6.1085 8.54621 6.20112L9.37395 7.36606C9.43817 7.45513 9.48455 7.53706 9.51666 7.61544C9.54877 7.69025 9.56661 7.76506 9.56661 7.83275C9.56661 7.91825 9.54164 8.00375 9.49169 8.08569C9.4453 8.16762 9.37751 8.25312 9.29189 8.33862L9.02073 8.62006C8.98148 8.65925 8.96364 8.70556 8.96364 8.76256C8.96364 8.79106 8.96721 8.816 8.97435 8.8445C8.98505 8.873 8.99576 8.89437 9.00289 8.91575C9.06711 9.03331 9.17772 9.1865 9.3347 9.37175C9.49525 9.557 9.66651 9.74581 9.85204 9.93462C10.0447 10.1234 10.2302 10.298 10.4193 10.4583C10.6049 10.6151 10.7583 10.7219 10.8796 10.7861C10.8974 10.7932 10.9188 10.8039 10.9438 10.8146C10.9723 10.8252 11.0009 10.8288 11.033 10.8288C11.0937 10.8288 11.14 10.8074 11.1793 10.7682L11.4504 10.5011C11.5396 10.412 11.6253 10.3443 11.7073 10.3016C11.7894 10.2517 11.8714 10.2267 11.9606 10.2267C12.0284 10.2267 12.0998 10.241 12.1783 10.2731C12.2568 10.3051 12.3388 10.3514 12.428 10.412L13.609 11.2492C13.7018 11.3133 13.766 11.3881 13.8052 11.4772C13.8409 11.5662 13.8623 11.6553 13.8623 11.7551Z" stroke="white" stroke-miterlimit="10"/>
</svg>
